<?xml version="1.0" standalone="yes"?>
<svg xmlns="http://www.w3.org/2000/svg" width="500" height="500">
<path style="fill:#ffffff; stroke:none;" d="M0 0L0 500L500 500L500 0L0 0z"/>
<path style="fill:#e69d9d; stroke:none;" d="M233.667 56.3333L234.333 56.6667L233.667 56.3333z"/>
<path style="fill:#5f5f5f; stroke:none;" d="M235 56L235 57L240 57L235 56z"/>
<path style="fill:#030303; stroke:none;" d="M133 288C116.063 238.244 104.074 193.125 111.729 140C113.706 126.281 115.383 104.998 123.278 93.2785C126.001 89.2361 133.593 88.4902 138 87.3742C151.308 84.0044 164.607 80.4265 178 77.4252C202.97 71.8297 229.319 66.3854 255 67.0146C280.029 67.6279 305.782 73.6491 330 79.6258C341.331 82.4221 352.769 84.7908 364 88C367.718 89.0625 373.47 89.4605 376.157 92.5131C379.04 95.7903 379.699 101.904 380.86 106C384.012 117.123 386.533 128.542 388.13 140C392.821 173.645 391.782 207.998 383.116 241C378.887 257.102 371.54 272.119 367 288C370.271 288 375.545 288.976 378.351 286.972C381.592 284.657 382.73 278.541 384.05 275C388.308 263.58 392.197 251.926 394.79 240C402.916 202.621 403.808 165.675 397.25 128C394.874 114.348 392.34 97.6343 386.147 85.1335C382.48 77.7329 361.525 75.7546 354 73.8734C321.052 65.6364 286.179 56.0548 252 56C216.608 55.9432 181.139 64.9898 147 73.5247C139.008 75.5226 117.916 77.3848 113.8 85.1335C108.584 94.9522 106.787 108.23 104.35 119C95.2822 159.072 95.9039 201.032 105.235 241C107.924 252.517 111.581 263.919 115.681 275C116.981 278.512 118.253 284.737 121.499 286.972C124.39 288.963 129.658 288 133 288z"/>
<path style="fill:#5f5f5f; stroke:none;" d="M260 56L260 57L265 57L260 56z"/>
<path style="fill:#e69d9d; stroke:none;" d="M265.667 56.3333L266.333 56.6667L265.667 56.3333M223.667 57.3333L224.333 57.6667L223.667 57.3333z"/>
<path style="fill:#5f5f5f; stroke:none;" d="M225 57L225 58L228 58L225 57M272 57L272 58L275 58L272 57z"/>
<path style="fill:#e69d9d; stroke:none;" d="M275 57L276 58L275 57M216 58L217 59L216 58z"/>
<path style="fill:#5f5f5f; stroke:none;" d="M217 58L217 59L220 59L217 58M279 58L279 59L282 59L279 58z"/>
<path style="fill:#e69d9d; stroke:none;" d="M282.667 58.3333L283.333 58.6667L282.667 58.3333M210 59L211 60L210 59z"/>
<path style="fill:#5f5f5f; stroke:none;" d="M211.667 59.3333L212.333 59.6667L211.667 59.3333M286 59L286 60L289 60L286 59z"/>
<path style="fill:#e69d9d; stroke:none;" d="M289 59L290 60L289 59M203.667 60.3333L204.333 60.6667L203.667 60.3333z"/>
<path style="fill:#5f5f5f; stroke:none;" d="M205.667 60.3333L206.333 60.6667L205.667 60.3333M292 60L292 61L295 61L292 60z"/>
<path style="fill:#e69d9d; stroke:none;" d="M295 60L296 61L295 60M198.667 61.3333L199.333 61.6667L198.667 61.3333z"/>
<path style="fill:#5f5f5f; stroke:none;" d="M200.667 61.3333L201.333 61.6667L200.667 61.3333M298.667 61.3333L299.333 61.6667L298.667 61.3333z"/>
<path style="fill:#e69d9d; stroke:none;" d="M300 61L301 62L300 61M193 62L194 63L193 62z"/>
<path style="fill:#5f5f5f; stroke:none;" d="M194.667 62.3333L195.333 62.6667L194.667 62.3333M304.667 62.3333L305.333 62.6667L304.667 62.3333z"/>
<path style="fill:#e69d9d; stroke:none;" d="M306 62L307 63L306 62M188 63L189 64L188 63z"/>
<path style="fill:#5f5f5f; stroke:none;" d="M189.667 63.3333L190.333 63.6667L189.667 63.3333M309.667 63.3333L310.333 63.6667L309.667 63.3333z"/>
<path style="fill:#e69d9d; stroke:none;" d="M311 63L312 64L311 63M183 64L184 65L183 64z"/>
<path style="fill:#5f5f5f; stroke:none;" d="M184.667 64.3333L185.333 64.6667L184.667 64.3333M314 64L315 65L314 64z"/>
<path style="fill:#e69d9d; stroke:none;" d="M315 64L316 65L315 64M179 65L180 66L179 65z"/>
<path style="fill:#5f5f5f; stroke:none;" d="M180 65L181 66L180 65M318.667 65.3333L319.333 65.6667L318.667 65.3333z"/>
<path style="fill:#e69d9d; stroke:none;" d="M320 65L321 66L320 65M174 66L175 67L174 66z"/>
<path style="fill:#5f5f5f; stroke:none;" d="M175.667 66.3333L176.333 66.6667L175.667 66.3333M323 66L324 67L323 66z"/>
<path style="fill:#e69d9d; stroke:none;" d="M324.667 66.3333L325.333 66.6667L324.667 66.3333M169.667 67.3333L170.333 67.6667L169.667 67.3333z"/>
<path style="fill:#5f5f5f; stroke:none;" d="M171 67L172 68L171 67M239 67L239 68L261 68L239 67M327.667 67.3333L328.333 67.6667L327.667 67.3333z"/>
<path style="fill:#e69d9d; stroke:none;" d="M329 67L330 68L329 67M165 68L166 69L165 68z"/>
<path style="fill:#5f5f5f; stroke:none;" d="M166.667 68.3333L167.333 68.6667L166.667 68.3333M229 68L229 69L232 69L229 68z"/>
<path style="fill:#e69d9d; stroke:none;" d="M232.667 68.3333L233.333 68.6667L232.667 68.3333z"/>
<path style="fill:#ffffff; stroke:none;" d="M133 288L145 288C141.276 274.383 134.326 261.66 130.427 248C120.613 213.615 117.67 178.394 122.729 143C124.422 131.157 125.651 113.415 132.139 103.133C134.903 98.7539 141.397 98.2772 146 97.1266C158.656 93.9625 171.218 90.6434 184 87.9969C210.487 82.5129 236.773 77.225 264 79.0895C283.249 80.4077 302.164 85.3706 321 89.1991C332.069 91.4489 343.095 94.2015 354 97.1512C358.022 98.2391 364.412 98.8762 367.157 102.303C374.631 111.635 375.528 132.476 377.13 144C381.542 175.718 380.034 207.91 371.846 239C367.534 255.37 357.919 271.625 355 288C358.197 288 362.791 288.787 365.606 286.972C368.873 284.866 370.047 279.407 371.399 276C375.531 265.587 379.143 254.87 381.873 244C391.256 206.652 393.335 166.909 385.8 129C383.787 118.869 382.749 101.547 376.157 93.3032C373.356 89.8012 367.099 89.1562 363 88.1266L330 79.8734C277.927 66.8721 229.291 65.4302 177 78.1296C163.999 81.2871 150.957 84.2938 138 87.6296C133.893 88.6871 125.917 89.6635 123.419 93.4298C116.064 104.519 114.661 124.104 112.59 137C107.123 171.035 108.518 206.483 116.895 240C121.02 256.504 128.363 271.779 133 288z"/>
<path style="fill:#e69d9d; stroke:none;" d="M266.667 68.3333L267.333 68.6667L266.667 68.3333z"/>
<path style="fill:#5f5f5f; stroke:none;" d="M268 68L268 69L271 69L268 68M332 68L333 69L332 68z"/>
<path style="fill:#e69d9d; stroke:none;" d="M333.667 68.3333L334.333 68.6667L333.667 68.3333M161 69L162 70L161 69z"/>
<path style="fill:#5f5f5f; stroke:none;" d="M162 69L163 70L162 69M221.667 69.3333L222.333 69.6667L221.667 69.3333z"/>
<path style="fill:#e69d9d; stroke:none;" d="M223.667 69.3333L224.333 69.6667L223.667 69.3333M274 69L274 70L277 70L274 69z"/>
<path style="fill:#5f5f5f; stroke:none;" d="M277.667 69.3333L278.333 69.6667L277.667 69.3333M336.667 69.3333L337.333 69.6667L336.667 69.3333z"/>
<path style="fill:#e69d9d; stroke:none;" d="M338 69L339 70L338 69M157 70L158 71L157 70z"/>
<path style="fill:#5f5f5f; stroke:none;" d="M158 70L159 71L158 70M213 70L213 71L216 71L213 70z"/>
<path style="fill:#e69d9d; stroke:none;" d="M216.667 70.3333L217.333 70.6667L216.667 70.3333M281 70L281 71L284 71L281 70z"/>
<path style="fill:#5f5f5f; stroke:none;" d="M284 70L284 71L287 71L284 70M340.667 70.3333L341.333 70.6667L340.667 70.3333z"/>
<path style="fill:#e69d9d; stroke:none;" d="M342 70L343 71L342 70M153 71L154 72L153 71z"/>
<path style="fill:#5f5f5f; stroke:none;" d="M154 71L155 72L154 71M208.667 71.3333L209.333 71.6667L208.667 71.3333z"/>
<path style="fill:#e69d9d; stroke:none;" d="M210 71L211 72L210 71M288.667 71.3333L289.333 71.6667L288.667 71.3333z"/>
<path style="fill:#5f5f5f; stroke:none;" d="M290 71L291 72L290 71M344.667 71.3333L345.333 71.6667L344.667 71.3333z"/>
<path style="fill:#e69d9d; stroke:none;" d="M346 71L347 72L346 71M149 72L150 73L149 72z"/>
<path style="fill:#5f5f5f; stroke:none;" d="M150 72L151 73L150 72M202.667 72.3333L203.333 72.6667L202.667 72.3333z"/>
<path style="fill:#e69d9d; stroke:none;" d="M204.667 72.3333L205.333 72.6667L204.667 72.3333M294.667 72.3333L295.333 72.6667L294.667 72.3333z"/>
<path style="fill:#5f5f5f; stroke:none;" d="M296 72L297 73L296 72M348.667 72.3333L349.333 72.6667L348.667 72.3333z"/>
<path style="fill:#e69d9d; stroke:none;" d="M145 73L146 74L145 73z"/>
<path style="fill:#5f5f5f; stroke:none;" d="M146.667 73.3333L147.333 73.6667L146.667 73.3333M197.667 73.3333L198.333 73.6667L197.667 73.3333z"/>
<path style="fill:#e69d9d; stroke:none;" d="M199.667 73.3333L200.333 73.6667L199.667 73.3333M299 73L300 74L299 73z"/>
<path style="fill:#5f5f5f; stroke:none;" d="M300 73L300 74L303 74L300 73M352 73L353 74L352 73z"/>
<path style="fill:#e69d9d; stroke:none;" d="M353 73L354 74L353 73M141 74L142 75L141 74z"/>
<path style="fill:#5f5f5f; stroke:none;" d="M142 74L143 75L142 74M192 74L193 75L192 74z"/>
<path style="fill:#e69d9d; stroke:none;" d="M193.667 74.3333L194.333 74.6667L193.667 74.3333M305 74L306 75L305 74z"/>
<path style="fill:#5f5f5f; stroke:none;" d="M306.667 74.3333L307.333 74.6667L306.667 74.3333M356.667 74.3333L357.333 74.6667L356.667 74.3333z"/>
<path style="fill:#e69d9d; stroke:none;" d="M358 74L359 75L358 74M137 75L138 76L137 75z"/>
<path style="fill:#5f5f5f; stroke:none;" d="M138 75L139 76L138 75M187.667 75.3333L188.333 75.6667L187.667 75.3333z"/>
<path style="fill:#e69d9d; stroke:none;" d="M189 75L190 76L189 75M310 75L311 76L310 75z"/>
<path style="fill:#5f5f5f; stroke:none;" d="M311.667 75.3333L312.333 75.6667L311.667 75.3333M360.667 75.3333L361.333 75.6667L360.667 75.3333z"/>
<path style="fill:#e69d9d; stroke:none;" d="M362 75L363 76L362 75M133 76L134 77L133 76z"/>
<path style="fill:#5f5f5f; stroke:none;" d="M134.667 76.3333L135.333 76.6667L134.667 76.3333M182.667 76.3333L183.333 76.6667L182.667 76.3333z"/>
<path style="fill:#e69d9d; stroke:none;" d="M184 76L185 77L184 76M315 76L316 77L315 76z"/>
<path style="fill:#5f5f5f; stroke:none;" d="M316 76L317 77L316 76M364 76L365 77L364 76z"/>
<path style="fill:#e69d9d; stroke:none;" d="M365 76L366 77L365 76M130 77L131 78L130 77z"/>
<path style="fill:#5f5f5f; stroke:none;" d="M131 77L132 78L131 77M177.667 77.3333L178.333 77.6667L177.667 77.3333z"/>
<path style="fill:#e69d9d; stroke:none;" d="M179 77L180 78L179 77M319 77L320 78L319 77z"/>
<path style="fill:#5f5f5f; stroke:none;" d="M320.667 77.3333L321.333 77.6667L320.667 77.3333M367.667 77.3333L368.333 77.6667L367.667 77.3333z"/>
<path style="fill:#e69d9d; stroke:none;" d="M369 77L370 78L369 77M126 78L127 79L126 78z"/>
<path style="fill:#5f5f5f; stroke:none;" d="M127.667 78.3333L128.333 78.6667L127.667 78.3333M173.667 78.3333L174.333 78.6667L173.667 78.3333z"/>
<path style="fill:#e69d9d; stroke:none;" d="M175 78L176 79L175 78M324 78L325 79L324 78z"/>
<path style="fill:#5f5f5f; stroke:none;" d="M325 78L326 79L325 78M371.667 78.3333L372.333 78.6667L371.667 78.3333z"/>
<path style="fill:#e69d9d; stroke:none;" d="M373 78L374 79L373 78M123 79L124 80L123 79z"/>
<path style="fill:#5f5f5f; stroke:none;" d="M124 79L125 80L124 79M170 79L171 80L170 79z"/>
<path style="fill:#e69d9d; stroke:none;" d="M171 79L172 80L171 79M232 79L233 80L232 79z"/>
<path style="fill:#5f5f5f; stroke:none;" d="M233.667 79.3333L234.333 79.6667L233.667 79.3333z"/>
<path style="fill:#030303; stroke:none;" d="M152 288C148.447 275.011 141.622 262.955 137.72 250C127.733 216.84 123.825 181.399 128.729 147C130.249 136.34 130.837 115.968 137.854 107.43C141.004 103.597 148.475 103.19 153 102.116C165.004 99.2661 176.9 96.0394 189 93.6003C211.181 89.1289 234.208 83.5287 257 85.0895C293.407 87.5827 327.287 100.746 363 106C364.585 125.404 371.561 144.291 372.91 164C375.917 207.904 363.614 248.042 347 288C361.151 287.832 366.555 257.537 369.859 246C379.834 211.171 381.955 173.729 376.08 138C374.328 127.342 373.149 113.821 368.197 104.108C364.625 97.1028 348.993 96.0424 342 94.1512C315.861 87.082 286.187 79.3273 259 79.0038C226.092 78.6123 193.843 85.168 162 93.1266C154.881 94.9059 135.465 96.265 131.853 103.225C125.941 114.617 124.354 131.398 122.845 144C118.751 178.192 120.457 212.745 130 246C133.108 256.83 138.69 287.564 152 288z"/>
<path style="fill:#5f5f5f; stroke:none;" d="M265.667 79.3333L266.333 79.6667L265.667 79.3333z"/>
<path style="fill:#e69d9d; stroke:none;" d="M267 79L268 80L267 79z"/>
<path style="fill:#5f5f5f; stroke:none;" d="M328.667 79.3333L329.333 79.6667L328.667 79.3333M375 79L376 80L375 79z"/>
<path style="fill:#e69d9d; stroke:none;" d="M376 79L377 80L376 79M119 80L120 81L119 80z"/>
<path style="fill:#5f5f5f; stroke:none;" d="M120 80L121 81L120 80M165.667 80.3333L166.333 80.6667L165.667 80.3333z"/>
<path style="fill:#e69d9d; stroke:none;" d="M167 80L168 81L167 80M223 80L224 81L223 80z"/>
<path style="fill:#5f5f5f; stroke:none;" d="M224 80L224 81L227 81L224 80M273.667 80.3333L274.333 80.6667L273.667 80.3333z"/>
<path style="fill:#e69d9d; stroke:none;" d="M275 80L276 81L275 80M332 80L333 81L332 80z"/>
<path style="fill:#5f5f5f; stroke:none;" d="M333 80L334 81L333 80M378.667 80.3333L379.333 80.6667L378.667 80.3333z"/>
<path style="fill:#e69d9d; stroke:none;" d="M380 80L381 81L380 80M116 81L117 82L116 81z"/>
<path style="fill:#5f5f5f; stroke:none;" d="M117 81L118 82L117 81M161 81L162 82L161 81z"/>
<path style="fill:#e69d9d; stroke:none;" d="M162.667 81.3333L163.333 81.6667L162.667 81.3333M217 81L218 82L217 81z"/>
<path style="fill:#5f5f5f; stroke:none;" d="M218 81L219 82L218 81M280.667 81.3333L281.333 81.6667L280.667 81.3333z"/>
<path style="fill:#e69d9d; stroke:none;" d="M336 81L337 82L336 81z"/>
<path style="fill:#5f5f5f; stroke:none;" d="M337.667 81.3333L338.333 81.6667L337.667 81.3333M382 81L383 82L382 81z"/>
<path style="fill:#e69d9d; stroke:none;" d="M383 81L384 82L383 81z"/>
<path style="fill:#5f5f5f; stroke:none;" d="M114 82L115 83L114 82M157 82L158 83L157 82z"/>
<path style="fill:#e69d9d; stroke:none;" d="M158.667 82.3333L159.333 82.6667L158.667 82.3333M211 82L212 83L211 82z"/>
<path style="fill:#5f5f5f; stroke:none;" d="M212 82L213 83L212 82M286.667 82.3333L287.333 82.6667L286.667 82.3333z"/>
<path style="fill:#e69d9d; stroke:none;" d="M288 82L289 83L288 82M340 82L341 83L340 82z"/>
<path style="fill:#5f5f5f; stroke:none;" d="M341.667 82.3333L342.333 82.6667L341.667 82.3333M385 82L386 83L385 82M152.667 83.3333L153.333 83.6667L152.667 83.3333z"/>
<path style="fill:#e69d9d; stroke:none;" d="M154 83L155 84L154 83z"/>
<path style="fill:#5f5f5f; stroke:none;" d="M205.667 83.3333L206.333 83.6667L205.667 83.3333M293 83L294 84L293 83z"/>
<path style="fill:#e69d9d; stroke:none;" d="M294 83L295 84L294 83M345 83L346 84L345 83z"/>
<path style="fill:#5f5f5f; stroke:none;" d="M346 83L347 84L346 83z"/>
<path style="fill:#e69d9d; stroke:none;" d="M113 84L114 85L113 84z"/>
<path style="fill:#5f5f5f; stroke:none;" d="M149 84L150 85L149 84z"/>
<path style="fill:#e69d9d; stroke:none;" d="M150 84L151 85L150 84z"/>
<path style="fill:#5f5f5f; stroke:none;" d="M200.667 84.3333L201.333 84.6667L200.667 84.3333M298 84L299 85L298 84z"/>
<path style="fill:#e69d9d; stroke:none;" d="M299 84L300 85L299 84M349 84L350 85L349 84z"/>
<path style="fill:#5f5f5f; stroke:none;" d="M350 84L351 85L350 84z"/>
<path style="fill:#e69d9d; stroke:none;" d="M386 84L387 85L386 84z"/>
<path style="fill:#5f5f5f; stroke:none;" d="M113 85L114 86L113 85M145 85L146 86L145 85z"/>
<path style="fill:#e69d9d; stroke:none;" d="M146 85L147 86L146 85M195 85L196 86L195 85z"/>
<path style="fill:#5f5f5f; stroke:none;" d="M196 85L197 86L196 85M238 85L238 86L242 86L238 85z"/>
<path style="fill:#e69d9d; stroke:none;" d="M242 85L242 86L245 86L242 85z"/>
<path style="fill:#ffffff; stroke:none;" d="M245 85.4244C218.323 88.9168 192.255 92.3181 166 98.8734C158.715 100.692 144.088 101.504 138.563 106.728C132.067 112.87 131.322 131.52 129.92 140C123.901 176.405 127.091 213.674 137.424 249C140.2 258.49 143.668 268.003 147.769 277C149.189 280.115 150.365 285.02 153.394 286.972C156.997 289.295 163.888 288 168 288L203 288L298 288C312.641 288 329.481 290.338 343.895 287.852C348.454 287.066 349.833 281.71 351.421 278C355.75 267.887 359.824 257.585 362.859 247C372.619 212.959 375.28 178.043 370.271 143C368.747 132.339 367.552 118.929 362.867 109.133C359.496 102.086 341.968 100.83 335 99.1296C307.532 92.4251 273.432 81.7022 245 85.4244z"/>
<path style="fill:#e69d9d; stroke:none;" d="M254 85L254 86L257 86L254 85z"/>
<path style="fill:#5f5f5f; stroke:none;" d="M257 85L257 86L261 86L257 85M303 85L304 86L303 85z"/>
<path style="fill:#e69d9d; stroke:none;" d="M352 85L353 86L352 85z"/>
<path style="fill:#5f5f5f; stroke:none;" d="M353.667 85.3333L354.333 85.6667L353.667 85.3333M386 85L387 86L386 85M141 86L142 87L141 86z"/>
<path style="fill:#e69d9d; stroke:none;" d="M142 86L143 87L142 86M190 86L191 87L190 86z"/>
<path style="fill:#5f5f5f; stroke:none;" d="M191 86L192 87L191 86M227 86L227 87L230 87L227 86z"/>
<path style="fill:#e69d9d; stroke:none;" d="M230 86L231 87L230 86M269 86L270 87L269 86z"/>
<path style="fill:#5f5f5f; stroke:none;" d="M270.667 86.3333L271.333 86.6667L270.667 86.3333M307.667 86.3333L308.333 86.6667L307.667 86.3333z"/>
<path style="fill:#e69d9d; stroke:none;" d="M356 86L357 87L356 86z"/>
<path style="fill:#5f5f5f; stroke:none;" d="M357.667 86.3333L358.333 86.6667L357.667 86.3333z"/>
<path style="fill:#e69d9d; stroke:none;" d="M112 87L113 88L112 87z"/>
<path style="fill:#5f5f5f; stroke:none;" d="M137 87L138 88L137 87z"/>
<path style="fill:#e69d9d; stroke:none;" d="M138 87L139 88L138 87z"/>
<path style="fill:#5f5f5f; stroke:none;" d="M186 87L187 88L186 87M221 87L222 88L221 87z"/>
<path style="fill:#e69d9d; stroke:none;" d="M222 87L223 88L222 87z"/>
<path style="fill:#5f5f5f; stroke:none;" d="M277.667 87.3333L278.333 87.6667L277.667 87.3333M312 87L313 88L312 87z"/>
<path style="fill:#e69d9d; stroke:none;" d="M313 87L314 88L313 87M360 87L361 88L360 87z"/>
<path style="fill:#5f5f5f; stroke:none;" d="M361.667 87.3333L362.333 87.6667L361.667 87.3333M112 88L113 89L112 88M133.667 88.3333L134.333 88.6667L133.667 88.3333z"/>
<path style="fill:#e69d9d; stroke:none;" d="M181 88L182 89L181 88z"/>
<path style="fill:#5f5f5f; stroke:none;" d="M182 88L183 89L182 88M215 88L216 89L215 88z"/>
<path style="fill:#e69d9d; stroke:none;" d="M216 88L217 89L216 88M283 88L284 89L283 88z"/>
<path style="fill:#5f5f5f; stroke:none;" d="M284 88L285 89L284 88M317 88L318 89L317 88z"/>
<path style="fill:#e69d9d; stroke:none;" d="M364 88L365 89L364 88z"/>
<path style="fill:#5f5f5f; stroke:none;" d="M365 88L366 89L365 88z"/>
<path style="fill:#e69d9d; stroke:none;" d="M387 88L388 89L387 88z"/>
<path style="fill:#5f5f5f; stroke:none;" d="M130 89L131 90L130 89z"/>
<path style="fill:#e69d9d; stroke:none;" d="M131 89L132 90L131 89M176 89L177 90L176 89z"/>
<path style="fill:#5f5f5f; stroke:none;" d="M177 89L178 90L177 89M209 89L210 90L209 89z"/>
<path style="fill:#e69d9d; stroke:none;" d="M289 89L290 90L289 89z"/>
<path style="fill:#5f5f5f; stroke:none;" d="M290 89L291 90L290 89M321.667 89.3333L322.333 89.6667L321.667 89.3333z"/>
<path style="fill:#e69d9d; stroke:none;" d="M368 89L369 90L368 89z"/>
<path style="fill:#5f5f5f; stroke:none;" d="M369 89L370 90L369 89M387 89L388 90L387 89z"/>
<path style="fill:#e69d9d; stroke:none;" d="M111 90L112 91L111 90z"/>
<path style="fill:#5f5f5f; stroke:none;" d="M126.667 90.3333L127.333 90.6667L126.667 90.3333z"/>
<path style="fill:#e69d9d; stroke:none;" d="M128 90L129 91L128 90z"/>
<path style="fill:#5f5f5f; stroke:none;" d="M172.667 90.3333L173.333 90.6667L172.667 90.3333M203 90L204 91L203 90z"/>
<path style="fill:#e69d9d; stroke:none;" d="M204 90L205 91L204 90z"/>
<path style="fill:#5f5f5f; stroke:none;" d="M295.667 90.3333L296.333 90.6667L295.667 90.3333M326 90L327 91L326 90z"/>
<path style="fill:#e69d9d; stroke:none;" d="M327 90L328 91L327 90M371 90L372 91L371 90z"/>
<path style="fill:#5f5f5f; stroke:none;" d="M372.667 90.3333L373.333 90.6667L372.667 90.3333M111 91L112 92L111 91M123 91L124 92L123 91z"/>
<path style="fill:#e69d9d; stroke:none;" d="M124 91L125 92L124 91z"/>
<path style="fill:#5f5f5f; stroke:none;" d="M168 91L169 92L168 91M198 91L199 92L198 91z"/>
<path style="fill:#e69d9d; stroke:none;" d="M199 91L200 92L199 91z"/>
<path style="fill:#5f5f5f; stroke:none;" d="M300 91L301 92L300 91M330 91L331 92L330 91z"/>
<path style="fill:#e69d9d; stroke:none;" d="M331 91L332 92L331 91M375 91L377 93L375 91z"/>
<path style="fill:#5f5f5f; stroke:none;" d="M376 91L377 92L376 91z"/>
<path style="fill:#e69d9d; stroke:none;" d="M388 91L389 92L388 91M163 92L164 93L163 92z"/>
<path style="fill:#5f5f5f; stroke:none;" d="M164 92L165 93L164 92M194 92L195 93L194 92z"/>
<path style="fill:#e69d9d; stroke:none;" d="M304 92L305 93L304 92z"/>
<path style="fill:#5f5f5f; stroke:none;" d="M305 92L306 93L305 92M335 92L336 93L335 92M388 92L389 93L388 92z"/>
<path style="fill:#e69d9d; stroke:none;" d="M159 93L160 94L159 93z"/>
<path style="fill:#5f5f5f; stroke:none;" d="M160 93L161 94L160 93M189 93L190 94L189 93z"/>
<path style="fill:#e69d9d; stroke:none;" d="M190 93L191 94L190 93M309 93L310 94L309 93z"/>
<path style="fill:#5f5f5f; stroke:none;" d="M310 93L311 94L310 93M339 93L340 94L339 93z"/>
<path style="fill:#e69d9d; stroke:none;" d="M110 94L111 95L110 94z"/>
<path style="fill:#5f5f5f; stroke:none;" d="M122 94L123 95L122 94M156 94L157 95L156 94M184 94L185 95L184 94z"/>
<path style="fill:#e69d9d; stroke:none;" d="M185 94L186 95L185 94z"/>
<path style="fill:#5f5f5f; stroke:none;" d="M314 94L315 95L314 94z"/>
<path style="fill:#e69d9d; stroke:none;" d="M343 94L344 95L343 94z"/>
<path style="fill:#5f5f5f; stroke:none;" d="M377 94L378 95L377 94z"/>
<path style="fill:#e69d9d; stroke:none;" d="M389 94L390 95L389 94z"/>
<path style="fill:#5f5f5f; stroke:none;" d="M110 95L111 96L110 95z"/>
<path style="fill:#e69d9d; stroke:none;" d="M122 95L123 96L122 95z"/>
<path style="fill:#5f5f5f; stroke:none;" d="M152 95L153 96L152 95M180 95L181 96L180 95z"/>
<path style="fill:#e69d9d; stroke:none;" d="M318 95L319 96L318 95z"/>
<path style="fill:#5f5f5f; stroke:none;" d="M319 95L320 96L319 95M346 95L347 96L346 95z"/>
<path style="fill:#e69d9d; stroke:none;" d="M347 95L348 96L347 95M377 95L378 96L377 95z"/>
<path style="fill:#5f5f5f; stroke:none;" d="M389 95L390 96L389 95M148 96L149 97L148 96M175 96L176 97L175 96z"/>
<path style="fill:#e69d9d; stroke:none;" d="M176 96L177 97L176 96z"/>
<path style="fill:#5f5f5f; stroke:none;" d="M323 96L324 97L323 96M350 96L351 97L350 96z"/>
<path style="fill:#e69d9d; stroke:none;" d="M351 96L352 97L351 96M109 97L110 98L109 97z"/>
<path style="fill:#5f5f5f; stroke:none;" d="M121 97L122 98L121 97M144 97L145 98L144 97M171 97L172 98L171 97z"/>
<path style="fill:#e69d9d; stroke:none;" d="M327 97L328 98L327 97z"/>
<path style="fill:#5f5f5f; stroke:none;" d="M328 97L329 98L328 97M354 97L355 98L354 97z"/>
<path style="fill:#e69d9d; stroke:none;" d="M355 97L356 98L355 97z"/>
<path style="fill:#5f5f5f; stroke:none;" d="M378.333 97.6667L378.667 98.3333L378.333 97.6667M109 98L110 99L109 98z"/>
<path style="fill:#e69d9d; stroke:none;" d="M121 98L122 99L121 98z"/>
<path style="fill:#5f5f5f; stroke:none;" d="M140 98L141 99L140 98M167 98L168 99L167 98M332 98L333 99L332 98M358 98L359 99L358 98M390.333 98.6667L390.667 99.3333L390.333 98.6667M136 99L137 100L136 99M163 99L164 100L163 99M336 99L337 100L336 99M362 99L363 100L362 99z"/>
<path style="fill:#e69d9d; stroke:none;" d="M108 100L109 101L108 100z"/>
<path style="fill:#5f5f5f; stroke:none;" d="M120 100L121 101L120 100M133 100L134 101L133 100M159 100L160 101L159 100M340 100L341 101L340 100M365 100L366 101L365 100z"/>
<path style="fill:#e69d9d; stroke:none;" d="M366 100L367 101L366 100z"/>
<path style="fill:#5f5f5f; stroke:none;" d="M108.333 101.667L108.667 102.333L108.333 101.667z"/>
<path style="fill:#e69d9d; stroke:none;" d="M120 101L121 102L120 101z"/>
<path style="fill:#5f5f5f; stroke:none;" d="M155 101L156 102L155 101z"/>
<path style="fill:#e69d9d; stroke:none;" d="M343 101L344 102L343 101z"/>
<path style="fill:#5f5f5f; stroke:none;" d="M344 101L345 102L344 101M367 101L368 102L367 101M379 101L380 102L379 101z"/>
<path style="fill:#e69d9d; stroke:none;" d="M391 101L392 102L391 101z"/>
<path style="fill:#5f5f5f; stroke:none;" d="M151 102L152 103L151 102M348 102L349 103L348 102z"/>
<path style="fill:#e69d9d; stroke:none;" d="M379 102L380 103L379 102z"/>
<path style="fill:#5f5f5f; stroke:none;" d="M391 102L392 103L391 102z"/>
<path style="fill:#e69d9d; stroke:none;" d="M131 103L132 104L131 103z"/>
<path style="fill:#5f5f5f; stroke:none;" d="M146 103L147 104L146 103z"/>
<path style="fill:#e69d9d; stroke:none;" d="M147 103L148 104L147 103z"/>
<path style="fill:#5f5f5f; stroke:none;" d="M352 103L353 104L352 103z"/>
<path style="fill:#e69d9d; stroke:none;" d="M107 104L108 105L107 104z"/>
<path style="fill:#5f5f5f; stroke:none;" d="M119 104L120 105L119 104M143 104L144 105L143 104M356 104L357 105L356 104M368 104L369 105L368 104M380 104L381 105L380 104z"/>
<path style="fill:#e69d9d; stroke:none;" d="M392 104L393 105L392 104z"/>
<path style="fill:#5f5f5f; stroke:none;" d="M107 105L108 106L107 105z"/>
<path style="fill:#e69d9d; stroke:none;" d="M119 105L120 106L119 105z"/>
<path style="fill:#5f5f5f; stroke:none;" d="M139 105L140 106L139 105z"/>
<path style="fill:#e69d9d; stroke:none;" d="M359 105L360 106L359 105M380 105L381 106L380 105z"/>
<path style="fill:#5f5f5f; stroke:none;" d="M392.333 105.667L392.667 106.333L392.333 105.667M137 106L138 107L137 106M362 106L363 107L362 106M118 107L119 108L118 107M130 107L131 108L130 107z"/>
<path style="fill:#e69d9d; stroke:none;" d="M362 107L363 108L362 107M369 107L370 108L369 107M106 108L107 109L106 108M118 108L119 109L118 108z"/>
<path style="fill:#5f5f5f; stroke:none;" d="M381 108L382 109L381 108z"/>
<path style="fill:#e69d9d; stroke:none;" d="M393 108L394 109L393 108z"/>
<path style="fill:#5f5f5f; stroke:none;" d="M106 109L107 110L106 109M136 109L137 110L136 109z"/>
<path style="fill:#e69d9d; stroke:none;" d="M381 109L382 110L381 109z"/>
<path style="fill:#5f5f5f; stroke:none;" d="M393.333 109.667L393.667 110.333L393.333 109.667M129 110L130 111L129 110z"/>
<path style="fill:#e69d9d; stroke:none;" d="M136 110L137 111L136 110z"/>
<path style="fill:#5f5f5f; stroke:none;" d="M363 110L364 111L363 110M117 111L118 112L117 111M370 111L371 112L370 111M382.333 111.667L382.667 112.333L382.333 111.667z"/>
<path style="fill:#e69d9d; stroke:none;" d="M105 112L106 113L105 112M117 112L118 113L117 112M394 112L395 113L394 112z"/>
<path style="fill:#5f5f5f; stroke:none;" d="M105 113L106 114L105 113M135 113L136 114L135 113z"/>
<path style="fill:#e69d9d; stroke:none;" d="M382 113L383 114L382 113z"/>
<path style="fill:#5f5f5f; stroke:none;" d="M394.333 113.667L394.667 114.333L394.333 113.667M128 114L129 115L128 114z"/>
<path style="fill:#e69d9d; stroke:none;" d="M364 114L365 115L364 114M371 114L372 115L371 114z"/>
<path style="fill:#5f5f5f; stroke:none;" d="M116 115L117 116L116 115M371 115L372 116L371 115M383.333 115.667L383.667 116.333L383.333 115.667z"/>
<path style="fill:#e69d9d; stroke:none;" d="M104 116L105 117L104 116M116 116L117 117L116 116M395.333 116.667L395.667 117.333L395.333 116.667z"/>
<path style="fill:#5f5f5f; stroke:none;" d="M104.333 117.667L104.667 118.333L104.333 117.667M134 117L135 118L134 117M365.333 117.667L365.667 118.333L365.333 117.667z"/>
<path style="fill:#e69d9d; stroke:none;" d="M383 117L384 118L383 117z"/>
<path style="fill:#5f5f5f; stroke:none;" d="M127 118L128 119L127 118M395 118L396 119L395 118M115.333 119.667L115.667 120.333L115.333 119.667M372 119L373 120L372 119z"/>
<path style="fill:#e69d9d; stroke:none;" d="M103.333 120.667L103.667 121.333L103.333 120.667z"/>
<path style="fill:#5f5f5f; stroke:none;" d="M384.333 120.667L384.667 121.333L384.333 120.667z"/>
<path style="fill:#e69d9d; stroke:none;" d="M115 121L116 122L115 121z"/>
<path style="fill:#5f5f5f; stroke:none;" d="M133 121L134 122L133 121z"/>
<path style="fill:#e69d9d; stroke:none;" d="M396 121L397 122L396 121z"/>
<path style="fill:#5f5f5f; stroke:none;" d="M103 122L104 123L103 122z"/>
<path style="fill:#e69d9d; stroke:none;" d="M126 122L127 123L126 122M313 122L313 123L316 123L313 122z"/>
<path style="fill:#ff5757; stroke:none;" d="M233 192L240 192L240 193C227.204 197.965 214.893 218.143 213.185 232C212.483 237.697 215.642 242.584 215.272 248C214.653 257.065 208.188 263.482 211 273C215.342 266.1 215.298 255.392 220.702 249.318C224.941 244.553 233.647 248.015 238.671 243.567C250.977 232.672 260.359 209.506 268 195L262 195C265.7 191.659 270.899 190.69 274.621 187.363C281.064 181.603 289.386 169.19 292 161L289 158C304.63 155.222 327.188 140.003 333 125C320.979 118.699 306.079 123.639 295 130.015C271.027 143.811 243.871 165.895 233 192z"/>
<path style="fill:#e69d9d; stroke:none;" d="M327 122L328 123L327 122z"/>
<path style="fill:#5f5f5f; stroke:none;" d="M366 122L367 123L366 122z"/>
<path style="fill:#e69d9d; stroke:none;" d="M384 122L385 123L384 122z"/>
<path style="fill:#5f5f5f; stroke:none;" d="M396.333 122.667L396.667 123.333L396.333 122.667M126 123L127 124L126 123z"/>
<path style="fill:#e69d9d; stroke:none;" d="M310 123L311 124L310 123M330 123L331 124L330 123z"/>
<path style="fill:#5f5f5f; stroke:none;" d="M373.333 123.667L373.667 124.333L373.333 123.667M114 124L115 125L114 124z"/>
<path style="fill:#e69d9d; stroke:none;" d="M307 124L308 125L307 124M332 124L333 125L332 124M102 125L103 126L102 125M114 125L115 126L114 125z"/>
<path style="fill:#5f5f5f; stroke:none;" d="M132 125L133 126L132 125z"/>
<path style="fill:#e69d9d; stroke:none;" d="M304 125L305 126L304 125M333 125L334 126L333 125z"/>
<path style="fill:#5f5f5f; stroke:none;" d="M385 125L386 126L385 125M102.333 126.667L102.667 127.333L102.333 126.667z"/>
<path style="fill:#e69d9d; stroke:none;" d="M132 126L133 127L132 126M301.667 126.333L302.333 126.667L301.667 126.333z"/>
<path style="fill:#5f5f5f; stroke:none;" d="M367 126L368 127L367 126z"/>
<path style="fill:#e69d9d; stroke:none;" d="M385.333 126.667L385.667 127.333L385.333 126.667M397 126L398 127L397 126z"/>
<path style="fill:#5f5f5f; stroke:none;" d="M125 127L126 128L125 127z"/>
<path style="fill:#e69d9d; stroke:none;" d="M299 127L300 128L299 127M332 127L333 128L332 127M367 127L368 128L367 127z"/>
<path style="fill:#5f5f5f; stroke:none;" d="M397 127L397 130L398 130L397 127M113.333 128.667L113.667 129.333L113.333 128.667z"/>
<path style="fill:#e69d9d; stroke:none;" d="M297 128L298 129L297 128M331 128L332 129L331 128z"/>
<path style="fill:#5f5f5f; stroke:none;" d="M374 128L375 129L374 128z"/>
<path style="fill:#e69d9d; stroke:none;" d="M295 129L296 130L295 129M113.333 130.667L113.667 131.333L113.333 130.667z"/>
<path style="fill:#5f5f5f; stroke:none;" d="M131 130L132 131L131 130z"/>
<path style="fill:#e69d9d; stroke:none;" d="M294 130L295 131L294 130z"/>
<path style="fill:#5f5f5f; stroke:none;" d="M386.333 130.667L386.667 131.333L386.333 130.667z"/>
<path style="fill:#e69d9d; stroke:none;" d="M101 131L102 132L101 131M131 131L132 132L131 131M292 131L293 132L292 131z"/>
<path style="fill:#5f5f5f; stroke:none;" d="M368 131L369 132L368 131M101.333 132.667L101.667 133.333L101.333 132.667M124.333 132.667L124.667 133.333L124.333 132.667z"/>
<path style="fill:#e69d9d; stroke:none;" d="M328 132L329 133L328 132M368 132L369 133L368 132M386 132L387 133L386 132M398 132L399 133L398 132M289 133L290 134L289 133M327 133L328 134L327 133z"/>
<path style="fill:#5f5f5f; stroke:none;" d="M375.333 133.667L375.667 134.333L375.333 133.667M398.333 133.667L398.667 134.333L398.333 133.667M112.333 134.667L112.667 135.333L112.333 134.667z"/>
<path style="fill:#e69d9d; stroke:none;" d="M287 134L288 135L287 134M326 134L327 135L326 134z"/>
<path style="fill:#5f5f5f; stroke:none;" d="M130 135L131 136L130 135z"/>
<path style="fill:#e69d9d; stroke:none;" d="M325 135L326 136L325 135z"/>
<path style="fill:#5f5f5f; stroke:none;" d="M387.333 135.667L387.667 136.333L387.333 135.667z"/>
<path style="fill:#e69d9d; stroke:none;" d="M100.333 136.667L100.667 137.333L100.333 136.667M112.333 136.667L112.667 137.333L112.333 136.667M130 136L131 137L130 136M284 136L285 137L284 136M324 136L325 137L324 136z"/>
<path style="fill:#5f5f5f; stroke:none;" d="M369.333 136.667L369.667 137.333L369.333 136.667z"/>
<path style="fill:#e69d9d; stroke:none;" d="M123 137L124 138L123 137M283 137L284 138L283 137M323 137L324 138L323 137M387.333 137.667L387.667 138.333L387.333 137.667z"/>
<path style="fill:#5f5f5f; stroke:none;" d="M100 138L100 141L101 141L100 138M123 138L124 139L123 138z"/>
<path style="fill:#e69d9d; stroke:none;" d="M322 138L323 139L322 138M399.333 138.667L399.667 139.333L399.333 138.667M280 139L281 140L280 139M321 139L322 140L321 139z"/>
<path style="fill:#5f5f5f; stroke:none;" d="M376.333 139.667L376.667 140.333L376.333 139.667z"/>
<path style="fill:#e69d9d; stroke:none;" d="M279 140L280 141L279 140M320 140L321 141L320 140z"/>
<path style="fill:#5f5f5f; stroke:none;" d="M399.333 140.667L399.667 141.333L399.333 140.667M111.333 141.667L111.667 142.333L111.333 141.667M129 141L130 142L129 141z"/>
<path style="fill:#e69d9d; stroke:none;" d="M319 141L320 142L319 141M129 142L130 143L129 142M276 142L277 143L276 142z"/>
<path style="fill:#5f5f5f; stroke:none;" d="M370.333 142.667L370.667 143.333L370.333 142.667M388 142L388 145L389 145L388 142z"/>
<path style="fill:#e69d9d; stroke:none;" d="M99.3333 143.667L99.6667 144.333L99.3333 143.667M111.333 143.667L111.667 144.333L111.333 143.667M275 143L276 144L275 143M316 143L317 144L316 143M122 144L123 145L122 144M274 144L275 145L274 144M315 144L316 145L315 144M370 144L371 145L370 144z"/>
<path style="fill:#5f5f5f; stroke:none;" d="M99 145L99 149L100 149L99 145M122.333 145.667L122.667 146.333L122.333 145.667z"/>
<path style="fill:#e69d9d; stroke:none;" d="M388.333 145.667L388.667 146.333L388.333 145.667M400.333 145.667L400.667 146.333L400.333 145.667M271 146L272 147L271 146M312 146L313 147L312 146z"/>
<path style="fill:#5f5f5f; stroke:none;" d="M377.333 146.667L377.667 147.333L377.333 146.667z"/>
<path style="fill:#e69d9d; stroke:none;" d="M270 147L271 148L270 147M311 147L312 148L311 147z"/>
<path style="fill:#5f5f5f; stroke:none;" d="M400 147L400 151L401 151L400 147M110 148L110 152L111 152L110 148M128.333 148.667L128.667 149.333L128.333 148.667z"/>
<path style="fill:#e69d9d; stroke:none;" d="M269 148L270 149L269 148M309 148L310 149L309 148M268 149L269 150L268 149M128 150L129 151L128 150M306 150L307 151L306 150z"/>
<path style="fill:#5f5f5f; stroke:none;" d="M371.333 150.667L371.667 151.333L371.333 150.667M389 150L389 154L390 154L389 150z"/>
<path style="fill:#e69d9d; stroke:none;" d="M98 152L98 155L99 155L98 152M110.333 152.667L110.667 153.333L110.333 152.667M121 152L122 153L121 152M264 152L265 153L264 152M303 152L304 153L303 152M371 152L372 153L371 152z"/>
<path style="fill:#5f5f5f; stroke:none;" d="M121 153L121 156L122 156L121 153z"/>
<path style="fill:#e69d9d; stroke:none;" d="M263 153L264 154L263 153M301 153L302 154L301 153M262 154L263 155L262 154M299 154L300 155L299 154M378.333 154.667L378.667 155.333L378.333 154.667M389 154L389 157L390 157L389 154z"/>
<path style="fill:#5f5f5f; stroke:none;" d="M98 155L98 159L99 159L98 155z"/>
<path style="fill:#e69d9d; stroke:none;" d="M261 155L262 156L261 155M296.667 155.333L297.333 155.667L296.667 155.333M401 155L401 158L402 158L401 155M260 156L261 157L260 156M294 156L295 157L294 156z"/>
<path style="fill:#5f5f5f; stroke:none;" d="M378.333 156.667L378.667 157.333L378.333 156.667M127 157L127 160L128 160L127 157z"/>
<path style="fill:#e69d9d; stroke:none;" d="M259 157L260 158L259 157M292 157L293 158L292 157z"/>
<path style="fill:#5f5f5f; stroke:none;" d="M109 158L109 164L110 164L109 158z"/>
<path style="fill:#e69d9d; stroke:none;" d="M289 158L289 160L291 158L289 158z"/>
<path style="fill:#5f5f5f; stroke:none;" d="M401 158L401 164L402 164L401 158z"/>
<path style="fill:#e69d9d; stroke:none;" d="M127 160L128 161L127 160z"/>
<path style="fill:#5f5f5f; stroke:none;" d="M372 160L372 164L373 164L372 160z"/>
<path style="fill:#e69d9d; stroke:none;" d="M292 162L293 163L292 162z"/>
<path style="fill:#5f5f5f; stroke:none;" d="M390 162L390 169L391 169L390 162z"/>
<path style="fill:#e69d9d; stroke:none;" d="M291 163L292 164L291 163M109 164L109 171L110 171L109 164M120.333 164.667L120.667 165.333L120.333 164.667M372.333 164.667L372.667 165.333L372.333 164.667M251 165L252 166L251 165M97 166L97 189L98 189L97 166z"/>
<path style="fill:#5f5f5f; stroke:none;" d="M120 166L120 176L121 176L120 166z"/>
<path style="fill:#e69d9d; stroke:none;" d="M250 166L251 167L250 166M289 166L290 167L289 166M249 167L250 168L249 167M248 168L249 169L248 168M247 169L248 170L247 169M379 169L379 173L380 173L379 169M390 169L390 188L391 188L390 169M286 170L287 171L286 170M244 173L245 174L244 173M284 173L285 174L284 173z"/>
<path style="fill:#5f5f5f; stroke:none;" d="M379 173L379 183L380 183L379 173z"/>
<path style="fill:#e69d9d; stroke:none;" d="M243 174L244 175L243 174M402 174L402 183L403 183L402 174M282 176L283 177L282 176M281 177L282 178L281 177M240 178L241 179L240 178z"/>
<path style="fill:#5f5f5f; stroke:none;" d="M120 179L120 188L121 188L120 179z"/>
<path style="fill:#e69d9d; stroke:none;" d="M279 180L280 181L279 180M238 181L239 182L238 181M109 183L109 191L110 191L109 183M277 183L278 184L277 183M379 183L379 187L380 187L379 183M236 184L237 185L236 184M276 185L277 186L276 185M235 186L236 187L235 186M120 188L120 191L121 191L120 188M234 188L235 189L234 188M273 188L274 189L273 188z"/>
<path style="fill:#5f5f5f; stroke:none;" d="M390 188L390 194L391 194L390 188z"/>
<path style="fill:#e69d9d; stroke:none;" d="M271 189L272 190L271 189M233 190L234 191L233 190M269 190L270 191L269 190z"/>
<path style="fill:#5f5f5f; stroke:none;" d="M109 191L109 196L110 196L109 191z"/>
<path style="fill:#e69d9d; stroke:none;" d="M267 191L268 192L267 191M372.333 191.667L372.667 192.333L372.333 191.667M239 192L240 193L239 192M265 192L266 193L265 192M238 193L239 194L238 193M262 193L269 195L269 194L262 193z"/>
<path style="fill:#5f5f5f; stroke:none;" d="M372 193L372 197L373 197L372 193M401 193L401 198L402 198L401 193z"/>
<path style="fill:#e69d9d; stroke:none;" d="M127.333 194.667L127.667 195.333L127.333 194.667M236 194L237 195L236 194M233 195L234 196L233 195z"/>
<path style="fill:#5f5f5f; stroke:none;" d="M98 196L98 201L99 201L98 196M127 196L127 199L128 199L127 196z"/>
<path style="fill:#e69d9d; stroke:none;" d="M231 196L232 197L231 196M267 196L268 197L267 196M266 197L267 198L266 197M229 198L230 199L229 198z"/>
<path style="fill:#5f5f5f; stroke:none;" d="M378 198L378 201L379 201L378 198z"/>
<path style="fill:#e69d9d; stroke:none;" d="M401 198L401 202L402 202L401 198M265 199L266 200L265 199M389 199L389 203L390 203L389 199z"/>
<path style="fill:#5f5f5f; stroke:none;" d="M121 200L121 203L122 203L121 200z"/>
<path style="fill:#e69d9d; stroke:none;" d="M228 200L229 201L228 200M98 201L98 204L99 204L98 201M264 201L265 202L264 201M378 201L379 202L378 201M110.333 202.667L110.667 203.333L110.333 202.667M227 202L228 203L227 202M121 203L122 204L121 203z"/>
<path style="fill:#5f5f5f; stroke:none;" d="M389 203L389 206L390 206L389 203M110 204L110 207L111 207L110 204z"/>
<path style="fill:#e69d9d; stroke:none;" d="M226 204L227 205L226 204M262 204L263 205L262 204M371 204L372 205L371 204z"/>
<path style="fill:#5f5f5f; stroke:none;" d="M371.333 205.667L371.667 206.333L371.333 205.667M128.333 206.667L128.667 207.333L128.333 206.667z"/>
<path style="fill:#e69d9d; stroke:none;" d="M261 206L262 207L261 206z"/>
<path style="fill:#5f5f5f; stroke:none;" d="M400 206L400 209L401 209L400 206M99 207L99 210L100 210L99 207z"/>
<path style="fill:#e69d9d; stroke:none;" d="M224 207L225 208L224 207z"/>
<path style="fill:#5f5f5f; stroke:none;" d="M377 208L378 209L377 208M122.333 209.667L122.667 210.333L122.333 209.667z"/>
<path style="fill:#e69d9d; stroke:none;" d="M223 209L224 210L223 209M259 209L260 210L259 209M377 209L378 210L377 209M388.333 209.667L388.667 210.333L388.333 209.667M400.333 209.667L400.667 210.333L400.333 209.667M99.3333 210.667L99.6667 211.333L99.3333 210.667M111.333 210.667L111.667 211.333L111.333 210.667M122 211L123 212L122 211M222 211L223 212L222 211M258 211L259 212L258 211M370 211L371 212L370 211z"/>
<path style="fill:#5f5f5f; stroke:none;" d="M388 211L388 214L389 214L388 211M111 212L111 215L112 215L111 212M370.333 212.667L370.667 213.333L370.333 212.667z"/>
<path style="fill:#e69d9d; stroke:none;" d="M129 213L130 214L129 213M221 213L222 214L221 213M257 213L258 214L257 213z"/>
<path style="fill:#5f5f5f; stroke:none;" d="M129 214L130 215L129 214M399 214L399 217L400 217L399 214M100 215L100 218L101 218L100 215z"/>
<path style="fill:#e69d9d; stroke:none;" d="M220 215L221 216L220 215z"/>
<path style="fill:#5f5f5f; stroke:none;" d="M376.333 215.667L376.667 216.333L376.333 215.667M123.333 216.667L123.667 217.333L123.333 216.667z"/>
<path style="fill:#e69d9d; stroke:none;" d="M255 216L256 217L255 216M112.333 217.667L112.667 218.333L112.333 217.667M387 217L388 218L387 217M399 217L400 218L399 217M100 218L101 219L100 218M218 218L219 219L218 218M254 218L255 219L254 218z"/>
<path style="fill:#5f5f5f; stroke:none;" d="M369.333 218.667L369.667 219.333L369.333 218.667M387.333 218.667L387.667 219.333L387.333 218.667M112.333 219.667L112.667 220.333L112.333 219.667z"/>
<path style="fill:#e69d9d; stroke:none;" d="M130 219L131 220L130 219z"/>
<path style="fill:#5f5f5f; stroke:none;" d="M130 220L131 221L130 220z"/>
<path style="fill:#e69d9d; stroke:none;" d="M217 220L218 221L217 220z"/>
<path style="fill:#5f5f5f; stroke:none;" d="M398 220L398 223L399 223L398 220z"/>
<path style="fill:#e69d9d; stroke:none;" d="M252 221L253 222L252 221z"/>
<path style="fill:#5f5f5f; stroke:none;" d="M375 221L376 222L375 221M101.333 222.667L101.667 223.333L101.333 222.667M124 222L125 223L124 222z"/>
<path style="fill:#e69d9d; stroke:none;" d="M216 222L217 223L216 222M375 222L376 223L375 222M113.333 223.667L113.667 224.333L113.333 223.667M124 223L125 224L124 223M251 223L252 224L251 223M386 223L387 224L386 223M398 223L399 224L398 223M101 224L102 225L101 224M215 224L216 225L215 224z"/>
<path style="fill:#5f5f5f; stroke:none;" d="M368 224L369 225L368 224M386.333 224.667L386.667 225.333L386.333 224.667M113.333 225.667L113.667 226.333L113.333 225.667M131 225L132 226L131 225z"/>
<path style="fill:#e69d9d; stroke:none;" d="M214 226L215 227L214 226M249 226L250 227L249 226z"/>
<path style="fill:#5f5f5f; stroke:none;" d="M374.333 226.667L374.667 227.333L374.333 226.667M397 226L397 229L398 229L397 226M102.333 227.667L102.667 228.333L102.333 227.667M125 227L126 228L125 227z"/>
<path style="fill:#e69d9d; stroke:none;" d="M114.333 228.667L114.667 229.333L114.333 228.667M125 228L126 229L125 228M213.333 228.667L213.667 229.333L213.333 228.667M248 228L249 229L248 228M367 228L368 229L367 228M385 228L386 229L385 228M102.333 229.667L102.667 230.333L102.333 229.667z"/>
<path style="fill:#5f5f5f; stroke:none;" d="M367 229L368 230L367 229M385.333 229.667L385.667 230.333L385.333 229.667z"/>
<path style="fill:#e69d9d; stroke:none;" d="M397 229L398 230L397 229z"/>
<path style="fill:#5f5f5f; stroke:none;" d="M114 230L115 231L114 230M132 230L133 231L132 230z"/>
<path style="fill:#e69d9d; stroke:none;" d="M247 230L248 231L247 230M246 231L247 232L246 231z"/>
<path style="fill:#5f5f5f; stroke:none;" d="M373 231L374 232L373 231M103.333 232.667L103.667 233.333L103.333 232.667M126 232L127 233L126 232M396 232L397 233L396 232z"/>
<path style="fill:#e69d9d; stroke:none;" d="M115 233L116 234L115 233M212 233L212 238L213 238L212 233M245 233L246 234L245 233z"/>
<path style="fill:#5f5f5f; stroke:none;" d="M366 233L367 234L366 233z"/>
<path style="fill:#e69d9d; stroke:none;" d="M384 233L385 234L384 233M396.333 233.667L396.667 234.333L396.333 233.667M103 234L104 235L103 234z"/>
<path style="fill:#5f5f5f; stroke:none;" d="M115.333 234.667L115.667 235.333L115.333 234.667M133 234L134 235L133 234M384.333 234.667L384.667 235.333L384.333 234.667z"/>
<path style="fill:#e69d9d; stroke:none;" d="M244 235L245 236L244 235z"/>
<path style="fill:#5f5f5f; stroke:none;" d="M372 235L373 236L372 235M127 236L128 237L127 236z"/>
<path style="fill:#e69d9d; stroke:none;" d="M243 236L244 237L243 236M372 236L373 237L372 236z"/>
<path style="fill:#5f5f5f; stroke:none;" d="M395.333 236.667L395.667 237.333L395.333 236.667M104.333 237.667L104.667 238.333L104.333 237.667z"/>
<path style="fill:#e69d9d; stroke:none;" d="M127 237L128 238L127 237z"/>
<path style="fill:#5f5f5f; stroke:none;" d="M365 237L366 238L365 237z"/>
<path style="fill:#e69d9d; stroke:none;" d="M383 237L384 238L383 237M116 238L117 239L116 238z"/>
<path style="fill:#5f5f5f; stroke:none;" d="M134 238L135 239L134 238z"/>
<path style="fill:#e69d9d; stroke:none;" d="M242 238L243 239L242 238z"/>
<path style="fill:#5f5f5f; stroke:none;" d="M383.333 238.667L383.667 239.333L383.333 238.667z"/>
<path style="fill:#e69d9d; stroke:none;" d="M395 238L396 239L395 238M104 239L105 240L104 239z"/>
<path style="fill:#5f5f5f; stroke:none;" d="M116 239L117 240L116 239M128 240L129 241L128 240z"/>
<path style="fill:#e69d9d; stroke:none;" d="M213.333 240.667L213.667 241.333L213.333 240.667M241 240L242 241L241 240M371 240L372 241L371 240M240 241L241 242L240 241z"/>
<path style="fill:#5f5f5f; stroke:none;" d="M364 241L365 242L364 241z"/>
<path style="fill:#e69d9d; stroke:none;" d="M382 241L383 242L382 241z"/>
<path style="fill:#5f5f5f; stroke:none;" d="M394 241L395 242L394 241M105 242L106 243L105 242z"/>
<path style="fill:#e69d9d; stroke:none;" d="M117 242L118 243L117 242z"/>
<path style="fill:#5f5f5f; stroke:none;" d="M135 242L136 243L135 242M382.333 242.667L382.667 243.333L382.333 242.667z"/>
<path style="fill:#e69d9d; stroke:none;" d="M394 242L395 243L394 242M105 243L106 244L105 243z"/>
<path style="fill:#5f5f5f; stroke:none;" d="M117 243L118 244L117 243z"/>
<path style="fill:#e69d9d; stroke:none;" d="M214 243L215 244L214 243M239 243L240 244L239 243z"/>
<path style="fill:#5f5f5f; stroke:none;" d="M370 243L371 244L370 243M129 244L130 245L129 244z"/>
<path style="fill:#e69d9d; stroke:none;" d="M238 244L239 245L238 244z"/>
<path style="fill:#5f5f5f; stroke:none;" d="M363 244L364 245L363 244M106.333 245.667L106.667 246.333L106.333 245.667z"/>
<path style="fill:#e69d9d; stroke:none;" d="M118 245L119 246L118 245z"/>
<path style="fill:#5f5f5f; stroke:none;" d="M136 245L137 246L136 245z"/>
<path style="fill:#e69d9d; stroke:none;" d="M215 245L216 246L215 245M236 245L237 246L236 245M381 245L382 246L381 245z"/>
<path style="fill:#5f5f5f; stroke:none;" d="M393 245L394 246L393 245M118.333 246.667L118.667 247.333L118.333 246.667z"/>
<path style="fill:#e69d9d; stroke:none;" d="M231 246L231 247L234 247L231 246z"/>
<path style="fill:#5f5f5f; stroke:none;" d="M381 246L382 247L381 246z"/>
<path style="fill:#e69d9d; stroke:none;" d="M393 246L394 247L393 246M106 247L107 248L106 247z"/>
<path style="fill:#5f5f5f; stroke:none;" d="M130 247L131 248L130 247z"/>
<path style="fill:#e69d9d; stroke:none;" d="M221 247L221 248L226 248L221 247z"/>
<path style="fill:#5f5f5f; stroke:none;" d="M369 247L370 248L369 247z"/>
<path style="fill:#e69d9d; stroke:none;" d="M130 248L131 249L130 248M215 248L216 249L215 248M220 248L221 249L220 248z"/>
<path style="fill:#5f5f5f; stroke:none;" d="M362 248L363 249L362 248M392.333 248.667L392.667 249.333L392.333 248.667M107 249L108 250L107 249z"/>
<path style="fill:#e69d9d; stroke:none;" d="M119 249L120 250L119 249z"/>
<path style="fill:#5f5f5f; stroke:none;" d="M137 249L138 250L137 249z"/>
<path style="fill:#e69d9d; stroke:none;" d="M380 249L381 250L380 249M107 250L108 251L107 250z"/>
<path style="fill:#5f5f5f; stroke:none;" d="M119 250L120 251L119 250z"/>
<path style="fill:#e69d9d; stroke:none;" d="M219 250L220 251L219 250z"/>
<path style="fill:#5f5f5f; stroke:none;" d="M368 250L369 251L368 250M380 250L381 251L380 250z"/>
<path style="fill:#e69d9d; stroke:none;" d="M392 250L393 251L392 250z"/>
<path style="fill:#5f5f5f; stroke:none;" d="M131 251L132 252L131 251z"/>
<path style="fill:#e69d9d; stroke:none;" d="M214 251L215 252L214 251z"/>
<path style="fill:#5f5f5f; stroke:none;" d="M361 251L362 252L361 251M138 252L139 253L138 252z"/>
<path style="fill:#e69d9d; stroke:none;" d="M379 252L380 253L379 252z"/>
<path style="fill:#5f5f5f; stroke:none;" d="M391 252L392 253L391 252M108 253L109 254L108 253z"/>
<path style="fill:#e69d9d; stroke:none;" d="M120 253L121 254L120 253M218 253L219 254L218 253z"/>
<path style="fill:#5f5f5f; stroke:none;" d="M367 253L368 254L367 253M379 253L380 254L379 253z"/>
<path style="fill:#e69d9d; stroke:none;" d="M391 253L392 254L391 253M108 254L109 255L108 254z"/>
<path style="fill:#5f5f5f; stroke:none;" d="M120 254L121 255L120 254M132 254L133 255L132 254z"/>
<path style="fill:#e69d9d; stroke:none;" d="M213 254L214 255L213 254z"/>
<path style="fill:#5f5f5f; stroke:none;" d="M360 254L361 255L360 254z"/>
<path style="fill:#e69d9d; stroke:none;" d="M367 254L368 255L367 254z"/>
<path style="fill:#5f5f5f; stroke:none;" d="M139 255L140 256L139 255z"/>
<path style="fill:#e69d9d; stroke:none;" d="M378 255L379 256L378 255z"/>
<path style="fill:#5f5f5f; stroke:none;" d="M109 256L110 257L109 256z"/>
<path style="fill:#e69d9d; stroke:none;" d="M121 256L122 257L121 256M212.333 256.667L212.667 257.333L212.333 256.667M217 256L218 257L217 256z"/>
<path style="fill:#5f5f5f; stroke:none;" d="M366 256L367 257L366 256M378 256L379 257L378 256M390 256L391 257L390 256z"/>
<path style="fill:#e69d9d; stroke:none;" d="M109 257L110 258L109 257z"/>
<path style="fill:#5f5f5f; stroke:none;" d="M121 257L122 258L121 257M133 257L134 258L133 257M359 257L360 258L359 257z"/>
<path style="fill:#e69d9d; stroke:none;" d="M366 257L367 258L366 257M390 257L391 258L390 257z"/>
<path style="fill:#5f5f5f; stroke:none;" d="M140 258L141 259L140 258z"/>
<path style="fill:#e69d9d; stroke:none;" d="M377 258L378 259L377 258z"/>
<path style="fill:#5f5f5f; stroke:none;" d="M110 259L111 260L110 259z"/>
<path style="fill:#e69d9d; stroke:none;" d="M122 259L123 260L122 259M211 259L212 260L211 259M216 259L217 260L216 259z"/>
<path style="fill:#5f5f5f; stroke:none;" d="M377 259L378 260L377 259M389 259L390 260L389 259z"/>
<path style="fill:#e69d9d; stroke:none;" d="M110 260L111 261L110 260z"/>
<path style="fill:#5f5f5f; stroke:none;" d="M122 260L123 261L122 260M134 260L135 261L134 260M358 260L359 261L358 260z"/>
<path style="fill:#e69d9d; stroke:none;" d="M365 260L366 261L365 260M389 260L390 261L389 260z"/>
<path style="fill:#5f5f5f; stroke:none;" d="M141 261L142 262L141 261M111.333 262.667L111.667 263.333L111.333 262.667z"/>
<path style="fill:#e69d9d; stroke:none;" d="M123 262L124 263L123 262M210 262L211 263L210 262M215 262L216 263L215 262M357 262L358 263L357 262z"/>
<path style="fill:#5f5f5f; stroke:none;" d="M364 262L365 263L364 262M376 262L377 263L376 262M388 262L389 263L388 262M123 263L124 264L123 263z"/>
<path style="fill:#e69d9d; stroke:none;" d="M135 263L136 264L135 263M142 263L143 264L142 263M388 263L389 264L388 263M214.333 264.667L214.667 265.333L214.333 264.667M124 265L125 266L124 265z"/>
<path style="fill:#5f5f5f; stroke:none;" d="M136 265L137 266L136 265z"/>
<path style="fill:#e69d9d; stroke:none;" d="M209 265L209 268L210 268L209 265z"/>
<path style="fill:#5f5f5f; stroke:none;" d="M356 265L357 266L356 265M363 265L364 266L363 265M375 265L376 266L375 265M387 265L388 266L387 265M112 266L113 267L112 266M124 266L125 267L124 266M143 266L144 267L143 266z"/>
<path style="fill:#e69d9d; stroke:none;" d="M387 266L388 267L387 266M213.333 267.667L213.667 268.333L213.333 267.667M374 267L375 268L374 267z"/>
<path style="fill:#5f5f5f; stroke:none;" d="M125 268L126 269L125 268M137 268L138 269L137 268M355 268L356 269L355 268z"/>
<path style="fill:#e69d9d; stroke:none;" d="M362 268L363 269L362 268z"/>
<path style="fill:#5f5f5f; stroke:none;" d="M374 268L375 269L374 268M386 268L387 269L386 268M113 269L114 270L113 269z"/>
<path style="fill:#e69d9d; stroke:none;" d="M386 269L387 270L386 269M126 270L127 271L126 270M212 270L213 271L212 270M354 270L355 271L354 270z"/>
<path style="fill:#5f5f5f; stroke:none;" d="M361 270L362 271L361 270z"/>
<path style="fill:#e69d9d; stroke:none;" d="M373 270L374 271L373 270z"/>
<path style="fill:#5f5f5f; stroke:none;" d="M114 271L115 272L114 271M126 271L127 272L126 271z"/>
<path style="fill:#e69d9d; stroke:none;" d="M138 271L139 272L138 271z"/>
<path style="fill:#5f5f5f; stroke:none;" d="M145 271L146 272L145 271M373 271L374 272L373 271M385 271L386 272L385 271z"/>
<path style="fill:#e69d9d; stroke:none;" d="M114 272L115 273L114 272M210 272L210 275L212 274L212 273L210 272M127 273L128 274L127 273z"/>
<path style="fill:#5f5f5f; stroke:none;" d="M139 273L140 274L139 273M353 273L354 274L353 273z"/>
<path style="fill:#e69d9d; stroke:none;" d="M360 273L361 274L360 273z"/>
<path style="fill:#5f5f5f; stroke:none;" d="M372 273L373 274L372 273M384 273L385 274L384 273M115 274L116 275L115 274M127 274L128 275L127 274z"/>
<path style="fill:#e69d9d; stroke:none;" d="M384 274L385 275L384 274M115 275L116 276L115 275z"/>
<path style="fill:#5f5f5f; stroke:none;" d="M352 275L353 276L352 275M359 275L360 276L359 275z"/>
<path style="fill:#e69d9d; stroke:none;" d="M371 275L372 276L371 275z"/>
<path style="fill:#5f5f5f; stroke:none;" d="M128 276L129 277L128 276z"/>
<path style="fill:#e69d9d; stroke:none;" d="M140 276L141 277L140 276z"/>
<path style="fill:#5f5f5f; stroke:none;" d="M147 276L148 277L147 276M371 276L372 277L371 276M383 276L384 277L383 276M116 277L117 278L116 277z"/>
<path style="fill:#e69d9d; stroke:none;" d="M351 277L352 278L351 277M383 277L384 278L383 277M129 278L130 279L129 278z"/>
<path style="fill:#5f5f5f; stroke:none;" d="M141 278L142 279L141 278z"/>
<path style="fill:#e69d9d; stroke:none;" d="M148 278L149 279L148 278M358 278L359 279L358 278M370 278L371 279L370 278z"/>
<path style="fill:#5f5f5f; stroke:none;" d="M117 279L118 280L117 279M129 279L130 280L129 279M382 279L383 280L382 279z"/>
<path style="fill:#e69d9d; stroke:none;" d="M117 280L118 281L117 280M149 280L150 281L149 280z"/>
<path style="fill:#5f5f5f; stroke:none;" d="M350 280L351 281L350 280M357 280L358 281L357 280z"/>
<path style="fill:#e69d9d; stroke:none;" d="M369 280L370 281L369 280z"/>
<path style="fill:#5f5f5f; stroke:none;" d="M130 281L131 282L130 281M369 281L370 282L369 281M381 281L382 282L381 281M118 282L119 283L118 282M349 282L350 283L349 282M356 282L357 283L356 282z"/>
<path style="fill:#e69d9d; stroke:none;" d="M381 282L382 283L381 282M131 283L132 284L131 283M143 283L144 284L143 283z"/>
<path style="fill:#5f5f5f; stroke:none;" d="M150 283L151 284L150 283M368 283L369 284L368 283M119 284L120 285L119 284M348 284L349 285L348 284M380 284L381 285L380 284z"/>
<path style="fill:#e69d9d; stroke:none;" d="M119 285L120 286L119 285M132 285L133 286L132 285z"/>
<path style="fill:#5f5f5f; stroke:none;" d="M144 285L145 286L144 285M151 285L152 286L151 285M367 285L368 286L367 285M132 286L133 287L132 286M347 286L348 287L347 286M379 286L380 287L379 286z"/>
<path style="fill:#e69d9d; stroke:none;" d="M120 287L91.0278 289.603L90 303L91 303L91 289L114 289L120 287z"/>
<path style="fill:#5f5f5f; stroke:none;" d="M145 287L145 288L153 287L145 287z"/>
<path style="fill:#e69d9d; stroke:none;" d="M354 287C356.924 290.346 363.092 289.155 367 288L367 287L354 287z"/>
<path style="fill:#5f5f5f; stroke:none;" d="M121 288L121 289L133 289L121 288z"/>
<path style="fill:#ff5757; stroke:none;" d="M91 289L91 303L16 303L35.2816 326L42.0733 336L35.0748 346L16 369L103 369L102 354C132.022 354 162.179 355.521 192 354.946C236.733 354.083 283.543 350.6 328 354.83C344.161 356.368 361.654 354 378 354C382.707 354 392.648 352.131 396.593 355.028C399.949 357.493 397.801 365.634 397 369L485 369L456 336L456 335C465.762 327.815 478.416 313.766 484 303L410 303L410 289L91 289z"/>
<path style="fill:#e69d9d; stroke:none;" d="M134 288L134 289L146 289L134 288M153 288L153 289L346 289L328 288L289 288L153 288z"/>
<path style="fill:#5f5f5f; stroke:none;" d="M347 288L347 289L354 289L347 288M366 288L366 289L379 289L366 288z"/>
<path style="fill:#e69d9d; stroke:none;" d="M379 288L379 289L410 289L379 288M410 289L410 303C433.493 303 462.155 298.561 485 304C481.492 299.986 471.06 302 466 302L411 302L410 289M104 301L104 306L108 306L108 327L109 327C109 317.384 109.561 310.355 105 302L117 302L104 301M118 301L118 327L119 327L119 302L122 302L122 327C124.474 321.105 125.656 302.278 118 301M128 301L128 302L133 302L128 301M139 301L139 302L143 302L143 312C145.552 307.531 144.412 301.903 139 301M148 301L148 302L152 302L148 301M154 301L154 302C158.192 302 162.52 301.175 165 305C166.208 299.62 157.431 301 154 301M171 301L171 302L176 302L171 301M187 301L187 327L188 327L188 302L198 302L198 305L191 305C191.059 310.017 191.589 312.578 197 313L197 312L192 312L192 306C203.883 305.61 193.525 301 187 301M201 301L201 302L209 302L201 301M215 323L216 323L216 302L219 302L219 322C220.069 319.452 221.021 299.343 216.545 302.176C212.802 304.545 215 318.956 215 323M220 323L220 324C226.785 321.748 224 307.976 224 302L227 302L227 323C228.973 318.297 228.402 311.094 227.941 306.019C227.786 304.31 226.322 299.905 224.008 302.662C219.389 308.167 226.938 318.502 220 323M233 301L233 302L238 302L233 301M246 305L247 305L247 302L253 302C249.501 300.583 247.193 301.404 246 305M261 306L261 327L262 327L262 305L258 305L258 302L270 302C265.569 300.141 252.345 303.124 261 306M271 327L272 327L272 302L276 302C268.185 299.439 271 322.12 271 327M282 301L282 302L287 302L282 301M293 301L293 302L298 302L293 301M302 301L302 302L305 302L305 327L306 327L306 301L302 301M317 301L317 302L322 302L317 301M328 301L328 302L339 302L328 301M341 301L341 302L346 304C346.488 301.041 343.484 301.118 341 301M350 301L350 302L354 302L350 301M359 306L359 327L360 327L360 305L356 305L356 302L368 302C363.569 300.141 350.345 303.124 359 306M369 327L370 327L370 302L380 302L380 305L374 305L374 306L381 306L381 301C378.073 301 373.051 300.089 370.603 302.028C366.335 305.409 369 321.857 369 327M383 301L383 302L391 302L383 301z"/>
<path style="fill:#ffffff; stroke:none;" d="M105 302L109 327L112 327C112 320.338 109.148 307.384 117 305L117 302L105 302M119 302L119 327L122 327L122 302L119 302M137 318L133 318L132 324L130 324L129 305L133 310L137 310C136.276 305.456 130.584 297.72 126.179 304.318C123.686 308.052 124.613 316.689 125.109 320.985C126.302 331.325 136.302 325.688 137 318z"/>
<path style="fill:#e69d9d; stroke:none;" d="M134 302L135 303L134 302z"/>
<path style="fill:#ffffff; stroke:none;" d="M139 302L139 327L143 327L144 317C146.245 321.259 146.728 326.087 152 327C149.005 316.05 147.5 312.809 152 302C146.835 302.888 145.342 307.343 144 312L143 312L143 302L139 302M154 302L154 305L161 305L154 327L165 327L165 324L158 324L165 302L154 302z"/>
<path style="fill:#e69d9d; stroke:none;" d="M169 302L168 304L169 302z"/>
<path style="fill:#ffffff; stroke:none;" d="M170.318 303.029C165.019 306.518 166.172 332.741 176.682 325.82C182.009 322.312 180.67 296.211 170.318 303.029z"/>
<path style="fill:#e69d9d; stroke:none;" d="M177 302L178 303L177 302z"/>
<path style="fill:#ffffff; stroke:none;" d="M188 302L188 327L198 327L198 324C192.572 323.586 191.171 321.256 191 316L197 316L197 313C192.077 312.215 191.154 309.725 191 305L198 305L198 302L188 302M201 302L201 327C204.1 326.998 208.128 327.549 210.682 325.397C214.359 322.298 214.673 307.158 211.258 303.742C208.807 301.292 204.145 302.002 201 302z"/>
<path style="fill:#e69d9d; stroke:none;" d="M210 302L211 303L210 302z"/>
<path style="fill:#ffffff; stroke:none;" d="M216 302C216 307.469 213.512 321.316 217.603 325.397C220.547 328.333 225.455 326.649 226.566 322.941C228.417 316.763 227 308.425 227 302L224 302C224 308.564 226.544 320.391 220 324L219 302L216 302z"/>
<path style="fill:#e69d9d; stroke:none;" d="M231 302L230 304L231 302z"/>
<path style="fill:#ffffff; stroke:none;" d="M241 318L238 318L237 324C231.329 319.276 232.77 311.624 234 305L238 310L241 310C240.845 305.225 235.503 297.615 231.028 304.318C228.721 307.773 229.89 315.018 230.015 319C230.357 329.858 240.88 328.125 241 318z"/>
<path style="fill:#e69d9d; stroke:none;" d="M239 302L240 303L239 302z"/>
<path style="fill:#ffffff; stroke:none;" d="M247 302L243 327L247 322L253 327L257 327L253 302L247 302M258 302L258 305L262 305L262 327L266 327L266 305L270 305L270 302L258 302M272 302L272 327L276 327L276 302L272 302z"/>
<path style="fill:#e69d9d; stroke:none;" d="M280 302L281 303L280 302z"/>
<path style="fill:#ffffff; stroke:none;" d="M281.279 302.743C274.742 305.841 275.98 331.056 286.772 326.253C293.129 323.424 292.537 297.407 281.279 302.743M293 302L293 327L296 327L296 310L297 310L301 327L305 327L305 302L302 302L302 316C299.835 310.262 300.359 302.587 293 302z"/>
<path style="fill:#e69d9d; stroke:none;" d="M315 302L314 304L315 302z"/>
<path style="fill:#ffffff; stroke:none;" d="M325 318L322 318L321 324C315.329 319.276 316.77 311.624 318 305L322 310L325 310C324.845 305.225 319.503 297.615 315.028 304.318C312.721 307.773 313.89 315.018 314.015 319C314.357 329.858 324.88 328.125 325 318z"/>
<path style="fill:#e69d9d; stroke:none;" d="M323 302L324 303L323 302z"/>
<path style="fill:#ffffff; stroke:none;" d="M328 302L328 327L339 327L339 324L332 324L332 316L337 316L337 313L332 313L332 305L339 305L339 302L328 302M341 302L341 327L345 327L345 311L346 311C346.504 316.777 347.38 325.899 354 327L354 302L350 302L350 315C347.877 309.372 348.16 302.571 341 302M356 302L356 305L360 305L360 327L364 327L364 305L368 305L368 302L356 302M370 302L370 327L380 327L380 324L374 324L374 316L379 316L379 313L374 313L374 305L380 305L380 302L370 302M383 302L383 327L387 327L387 317C391.151 319.289 390.984 322.579 391 327L395 327L392 315C398.174 305.637 392.102 302.006 383 302z"/>
<path style="fill:#e69d9d; stroke:none;" d="M392 302L393 303L392 302M15 303L16 304L15 303M135 303L136 304L135 303M147 303L148 304L147 303M151 303L152 304L151 303M178 303L179 304L178 303M240 303L241 304L240 303M298 303L299 304L298 303M324 303L325 304L324 303M16 304L17 305L16 304M125 304L126 305L125 304M212 304L213 305L212 304M253 304L253 307L254 307L253 304M278.333 304.667L278.667 305.333L278.333 304.667M289 304L290 305L289 304M394.333 304.667L394.667 305.333L394.333 304.667M483 304L484 305L483 304M17 305L18 306L17 305M113 305L113 306L117 306L113 305M129 305L130 306L129 305M136.333 305.667L136.667 306.333L136.333 305.667M146 305L147 306L146 305M150 305L151 306L150 305M154 305L154 306L161 307L154 305M167 305L167 324L168 324L167 305M172 305C170.484 310.13 168.994 320.755 174 324L174 323L172 305z"/>
<path style="fill:#ff5757; stroke:none;" d="M173 305L172 323L175 323L173 305z"/>
<path style="fill:#e69d9d; stroke:none;" d="M174 305L175 306L174 305M179 305L179 323L180 323L179 305M205 305L205 306L208 306L205 305M234 305L235 306L234 305M236 305L237 306L236 305M241 305L241 310L242 310L241 305M266 305L266 306L270 306L266 305z"/>
<path style="fill:#ff5757; stroke:none;" d="M283 305C281.738 310.301 279.616 320.881 286 323L285 305L283 305z"/>
<path style="fill:#e69d9d; stroke:none;" d="M285 305L286 306L285 305M318 305L319 306L318 305M320 305L321 306L320 305M325 305L325 310L326 310L325 305M332 305L332 306L339 306L332 305M347.333 305.667L347.667 306.333L347.333 305.667M364 305L364 306L368 306L364 305M387 305L387 306L390 308L391 308L387 305M18 306L19 307L18 306M112 306L112 327L113 327L112 306M132 306L133 307L132 306z"/>
<path style="fill:#ff5757; stroke:none;" d="M205 306L205 323C211.177 320.95 209 311.389 209 306L205 306z"/>
<path style="fill:#e69d9d; stroke:none;" d="M229 306L229 323L230 323L229 306M237 306L237 310L238 310L237 306M282 306L283 307L282 306M299.333 306.667L299.667 307.333L299.333 306.667M313 306L313 323L314 323L313 306M321 306L321 310L322 310L321 306z"/>
<path style="fill:#ff5757; stroke:none;" d="M387 306L387 313C390.651 311.713 390.665 309.582 390 306L387 306z"/>
<path style="fill:#e69d9d; stroke:none;" d="M145 307L146 308L145 307M149 307L150 308L149 307M164 307L165 308L164 307M175 307L175 322L176 322L175 307M233 307L233 322L234 322L233 307M249.333 307.667L249.667 308.333L249.333 307.667M290 307L290 321L291 321L290 307M317 307L317 322L318 322L317 307M159.333 308.667L159.667 309.333L159.333 308.667M213 308L213 321L214 321L213 308M148 309L149 310L148 309M163 309L164 310L163 309M245 309L245 312L246 312L245 309z"/>
<path style="fill:#ff5757; stroke:none;" d="M249 309L248 319C252.576 318.019 250.877 312.115 249 309z"/>
<path style="fill:#e69d9d; stroke:none;" d="M348.333 309.667L348.667 310.333L348.333 309.667M479 309L480 310L479 309M133 310L133 311L136 311L133 310M238 310L238 311L241 311L238 310M254 310L254 313L255 313L254 310M296 310L296 327L297 327L296 310M300.333 310.667L300.667 311.333L300.333 310.667M322 310L322 311L325 311L322 310M478 310L479 311L478 310M22 311L23 312L22 311M147 311L148 312L147 311M158 311L159 312L158 311M162.333 311.667L162.667 312.333L162.333 311.667M250 311L250 314L251 314L250 311M345.333 311.667L345.667 312.333L345.333 311.667M390 311L391 312L390 311M394.333 311.667L394.667 312.333L394.333 311.667M477 311L478 312L477 311M23 312L24 313L23 312M332 312L332 313L337 316L338 316L338 312L332 312M374 312L374 313L379 313L374 312M476 312L477 313L476 312M24 313L25 314L24 313M157 313L158 314L157 313M248 313L248 316L249 316L248 313M349.333 313.667L349.667 314.333L349.333 313.667M393 313L394 314L393 313M25 314L26 315L25 314M147 314L148 315L147 314M161 314L162 315L161 314M301.333 314.667L301.667 315.333L301.333 314.667M392 314L393 315L392 314M244 315L244 318L245 318L244 315M346 315L347 316L346 315M393 315L394 316L393 315M148.333 316.667L148.667 317.333L148.333 316.667M156 316L157 317L156 316M160 316L161 317L160 316M191 316L191 323L192 323L191 316M298 316L299 317L298 316M394.333 316.667L394.667 317.333L394.333 316.667M133 317L133 318L137 318L133 317M144 317L145 318L144 317M238 317L238 318L241 318L241 323L242 323L242 317L238 317M255 317L255 320L256 320L255 317M322 317L322 318L325 318L325 323L326 323L326 317L322 317M472 317L473 318L472 317M143 318L143 327L144 327L143 318M155 318L156 319L155 318M237 318L237 323L238 323L237 318M251 318L252 319L251 318M321 318L321 323L322 323L321 318M347.333 318.667L347.667 319.333L347.333 318.667M390 318L391 319L390 318M471 318L472 319L471 318M29 319L30 320L29 319M145.333 319.667L145.667 320.333L145.333 319.667M149 319L150 320L149 319M159 319L160 320L159 319M299.333 319.667L299.667 320.333L299.333 319.667M470 319L471 320L470 319M30 320L31 321L30 320M154.333 320.667L154.667 321.333L154.333 320.667M469 320L470 321L469 320M31 321L32 322L31 321M150.333 321.667L150.667 322.333L150.333 321.667M158 321L159 322L158 321M243 321L243 324L244 324L243 321M468 321L469 322L468 321M32 322L33 323L32 322M132 322L133 323L132 322M136.333 322.667L136.667 323.333L136.333 322.667M146 322L147 323L146 322M208 322L209 323L208 322M247 322L247 323L252 323L247 322M282 322L283 323L282 322M348.333 322.667L348.667 323.333L348.333 322.667M33 323L34 324L33 323M130.667 323.333L131.333 323.667L130.667 323.333M153 323L153 327L154 327L153 323M158 323L158 324L165 324L158 323M192 323L192 324L198 327L199 327L199 323L192 323M205.667 323.333L206.333 323.667L205.667 323.333M235.667 323.333L236.333 323.667L235.667 323.333M256 323L256 326L257 326L256 323M278 323L279 324L278 323M283.667 323.333L284.333 323.667L283.667 323.333M300.333 323.667L300.667 324.333L300.333 323.667M319.667 323.333L320.333 323.667L319.667 323.333M332 323L332 324L339 324L332 323M374 323L374 324L380 327L381 327L381 323L374 323M125 324L126 325L125 324M151 324L152 325L151 324M165 324L165 327L166 327L165 324M212 324L213 325L212 324M226 324L227 325L226 324M230 324L231 325L230 324M252 324L252 327L253 327L252 324M289 324L290 325L289 324M314 324L315 325L314 324M135 325L136 326L135 325M147 325L148 326L147 325M168 325L169 326L168 325M211 325L212 326L211 325M279 325L280 326L279 325M127 326L128 327L127 326M134 326L135 327L134 326M169 326L170 327L169 326M176 326L177 327L176 326M210 326L211 327L210 326M246 326L247 327L246 326M280 326L281 327L280 326M287 326L288 327L287 326M349 326L350 327L349 326M395 326L396 327L395 326M464 326L465 327L464 326M129 327L129 328L132 328L129 327M172 327L172 328L175 328L172 327M220 327L220 328L223 328L220 327M234 327L234 328L237 328L234 327M283 327L283 328L286 328L283 327M318 327L318 328L321 328L318 327M463 327L464 328L463 327M37 328L38 329L37 328M462 328L463 329L462 328M38 329L39 330L38 329M461 329L462 330L461 329M39 330L40 331L39 330M40 331L41 332L40 331M457 334L458 335L457 334M456 335L457 336L456 335M43 336L44 337L43 336M458 338L459 339L458 338M459 339L460 340L459 339M460 340L461 341L460 340M39 341L40 342L39 341M461 341L462 342L461 341M38 342L39 343L38 342M37 343L38 344L37 343M36 344L37 345L36 344M465 346L466 347L465 346M466 347L467 348L466 347M467 348L468 349L467 348M468 349L469 350L468 349M31 350L32 351L31 350M469 350L470 351L469 350M30 351L31 352L30 351M29 352L30 353L29 352M28 353L29 354L28 353M102 354L102 355L158 355L140 354L102 354M174 354L174 355L187 355L174 354M196 354L196 355L303 355L270 354L196 354M313 354L313 355L326 356L313 354M341 354L341 355L398 355L380 354L341 354M159 355L160 356L159 355z"/>
<path style="fill:#030303; stroke:none;" d="M160 355C164.923 364.883 173.571 373.652 180.729 382C201.41 406.119 224.996 424.78 250 444L251 444C282.234 416.972 319.015 391.832 340 355C323.103 355 319.601 364.074 308.83 376C296.94 389.165 284.615 401.84 271 413.246C266.125 417.33 256.676 428.216 250 428.302C242.828 428.396 233.084 416.91 228 412.579C214.736 401.278 202.861 388.81 191.086 376C180.244 364.205 176.901 355 160 355z"/>
<path style="fill:#ffffff; stroke:none;" d="M174 355C188.028 376.21 207.807 395.374 227 411.87C232.656 416.73 241.377 426.805 249 428.073C255.942 429.227 266.138 417.506 271 413.41C289.111 398.151 315.178 377.038 325 355C320.997 355 315.696 354.116 312.039 356.028C306.75 358.794 303.006 365.72 298.965 370C289.518 380.004 280.07 389.593 270 398.975C265.456 403.209 256.614 413.985 250 414.208C243.392 414.431 234.576 403.298 230 399.285C219.631 390.189 210.18 380.204 200.925 370C197.052 365.73 193.04 358.782 187.91 356.028C184.081 353.972 178.218 355 174 355z"/>
<path style="fill:#5f5f5f; stroke:none;" d="M188 355L189 356L188 355z"/>
<path style="fill:#030303; stroke:none;" d="M189 355C196.782 372.46 218.657 390.282 233 402.572C237.022 406.018 244.295 414.469 250 414.267C256.247 414.045 263.62 405.011 268 401.155C282.585 388.316 301.981 372.479 311 355C301.758 355.033 298.805 360.594 292.914 367C283.937 376.762 274.713 385.882 265 394.91C261.576 398.094 254.929 405.824 250 406.049C244.507 406.299 237.696 397.496 234 394.169C225.482 386.503 216.946 378.675 209.424 370C203.456 363.117 198.827 355.116 189 355z"/>
<path style="fill:#5f5f5f; stroke:none;" d="M196 355L198 357L196 355z"/>
<path style="fill:#ffffff; stroke:none;" d="M197 355C205.736 370.113 221.894 384.211 235 395.576C238.624 398.718 244.73 406.487 250 406.172C255.424 405.848 261.238 398.525 265 395.166C278.454 383.152 292.988 370.135 303 355L197 355z"/>
<path style="fill:#e69d9d; stroke:none;" d="M311 355L312 356L311 355M398 355L398 358L399 358L398 355M473 355L474 356L473 355z"/>
<path style="fill:#5f5f5f; stroke:none;" d="M160 356L161 357L160 356M174 356L175 357L174 356M310 356L311 357L310 356z"/>
<path style="fill:#e69d9d; stroke:none;" d="M339 356L340 357L339 356M474 356L475 357L474 356z"/>
<path style="fill:#5f5f5f; stroke:none;" d="M175 357L176 358L175 357z"/>
<path style="fill:#e69d9d; stroke:none;" d="M198 357L199 358L198 357z"/>
<path style="fill:#5f5f5f; stroke:none;" d="M301 357L302 358L301 357M324 357L325 358L324 357M338 357L339 358L338 357z"/>
<path style="fill:#e69d9d; stroke:none;" d="M475 357L476 358L475 357M24 358L25 359L24 358M176 358L177 359L176 358M300 358L301 359L300 358z"/>
<path style="fill:#5f5f5f; stroke:none;" d="M323 358L324 359L323 358z"/>
<path style="fill:#e69d9d; stroke:none;" d="M476 358L477 359L476 358M23 359L24 360L23 359M102 359L102 365L103 365L102 359M162 359L163 360L162 359M177 359L178 360L177 359M191 359L192 360L191 359M299 359L300 360L299 359M322 359L323 360L322 359M22 360L23 361L22 360z"/>
<path style="fill:#5f5f5f; stroke:none;" d="M163 360L164 361L163 360M192 360L193 361L192 360z"/>
<path style="fill:#e69d9d; stroke:none;" d="M307 360L308 361L307 360M321 360L322 361L321 360M336 360L337 361L336 360M21 361L22 362L21 361z"/>
<path style="fill:#5f5f5f; stroke:none;" d="M306 361L307 362L306 361M335 361L336 362L335 361M179 362L180 363L179 362M202 362L203 363L202 362M305 362L306 363L305 362M320 362L321 363L320 362z"/>
<path style="fill:#e69d9d; stroke:none;" d="M165 363L166 364L165 363z"/>
<path style="fill:#5f5f5f; stroke:none;" d="M180 363L181 364L180 363M203 363L204 364L203 363M319 363L320 364L319 363z"/>
<path style="fill:#e69d9d; stroke:none;" d="M480 363L481 364L480 363z"/>
<path style="fill:#5f5f5f; stroke:none;" d="M166 364L167 365L166 364z"/>
<path style="fill:#e69d9d; stroke:none;" d="M181 364L182 365L181 364M204 364L205 365L204 364z"/>
<path style="fill:#5f5f5f; stroke:none;" d="M295 364L296 365L295 364z"/>
<path style="fill:#e69d9d; stroke:none;" d="M318 364L319 365L318 364M333 364L334 365L333 364M397 364L397 368L398 368L397 364M481 364L482 365L481 364z"/>
<path style="fill:#5f5f5f; stroke:none;" d="M167 365L168 366L167 365z"/>
<path style="fill:#e69d9d; stroke:none;" d="M196 365L197 366L196 365M205 365L206 366L205 365z"/>
<path style="fill:#5f5f5f; stroke:none;" d="M294 365L295 366L294 365z"/>
<path style="fill:#e69d9d; stroke:none;" d="M317 365L318 366L317 365z"/>
<path style="fill:#5f5f5f; stroke:none;" d="M332 365L333 366L332 365z"/>
<path style="fill:#e69d9d; stroke:none;" d="M482 365L483 366L482 365M17 366L18 367L17 366z"/>
<path style="fill:#5f5f5f; stroke:none;" d="M197 366L198 367L197 366z"/>
<path style="fill:#e69d9d; stroke:none;" d="M293 366L294 367L293 366M302 366L303 367L302 366z"/>
<path style="fill:#5f5f5f; stroke:none;" d="M331 366L332 367L331 366z"/>
<path style="fill:#e69d9d; stroke:none;" d="M483 366L484 367L483 366M16 367L17 368L16 367M168 367L169 368L168 367z"/>
<path style="fill:#5f5f5f; stroke:none;" d="M183 367L184 368L183 367M198 367L199 368L198 367z"/>
<path style="fill:#e69d9d; stroke:none;" d="M292 367L293 368L292 367M301 367L302 368L301 367M15 368L16 369L15 368M169 368L170 369L169 368z"/>
<path style="fill:#5f5f5f; stroke:none;" d="M184 368L185 369L184 368M199 368L200 369L199 368M300 368L301 369L300 368M315 368L316 369L315 368z"/>
<path style="fill:#e69d9d; stroke:none;" d="M330 368L331 369L330 368z"/>
<path style="fill:#5f5f5f; stroke:none;" d="M170 369L171 370L170 369z"/>
<path style="fill:#e69d9d; stroke:none;" d="M185 369L186 370L185 369z"/>
<path style="fill:#5f5f5f; stroke:none;" d="M299 369L300 370L299 369M314 369L315 370L314 369z"/>
<path style="fill:#e69d9d; stroke:none;" d="M329 369L330 370L329 369z"/>
<path style="fill:#5f5f5f; stroke:none;" d="M171 370L172 371L171 370z"/>
<path style="fill:#e69d9d; stroke:none;" d="M186 370L187 371L186 370z"/>
<path style="fill:#5f5f5f; stroke:none;" d="M209 370L210 371L209 370M298 370L299 371L298 370z"/>
<path style="fill:#e69d9d; stroke:none;" d="M313 370L314 371L313 370z"/>
<path style="fill:#5f5f5f; stroke:none;" d="M328 370L329 371L328 370M210 371L211 372L210 371M297 371L298 372L297 371z"/>
<path style="fill:#e69d9d; stroke:none;" d="M312 371L313 372L312 371z"/>
<path style="fill:#5f5f5f; stroke:none;" d="M327 371L328 372L327 371z"/>
<path style="fill:#e69d9d; stroke:none;" d="M172 372L173 373L172 372z"/>
<path style="fill:#5f5f5f; stroke:none;" d="M211 372L212 373L211 372z"/>
<path style="fill:#e69d9d; stroke:none;" d="M173 373L174 374L173 373z"/>
<path style="fill:#5f5f5f; stroke:none;" d="M188 373L189 374L188 373M212 373L213 374L212 373z"/>
<path style="fill:#e69d9d; stroke:none;" d="M326 373L327 374L326 373z"/>
<path style="fill:#5f5f5f; stroke:none;" d="M174 374L175 375L174 374M189 374L190 375L189 374z"/>
<path style="fill:#e69d9d; stroke:none;" d="M204 374L205 375L204 374z"/>
<path style="fill:#5f5f5f; stroke:none;" d="M213 374L214 375L213 374M286 374L287 375L286 374M310 374L311 375L310 374z"/>
<path style="fill:#e69d9d; stroke:none;" d="M325 374L326 375L325 374z"/>
<path style="fill:#5f5f5f; stroke:none;" d="M175 375L176 376L175 375M190 375L191 376L190 375z"/>
<path style="fill:#e69d9d; stroke:none;" d="M205 375L206 376L205 375z"/>
<path style="fill:#5f5f5f; stroke:none;" d="M214 375L215 376L214 375M285 375L286 376L285 375M309 375L310 376L309 375M324 375L325 376L324 375z"/>
<path style="fill:#e69d9d; stroke:none;" d="M191 376L192 377L191 376M206 376L207 377L206 376M215 376L216 377L215 376z"/>
<path style="fill:#5f5f5f; stroke:none;" d="M284 376L285 377L284 376M308 376L309 377L308 376M323 376L324 377L323 376z"/>
<path style="fill:#e69d9d; stroke:none;" d="M192 377L193 378L192 377z"/>
<path style="fill:#5f5f5f; stroke:none;" d="M207 377L208 378L207 377z"/>
<path style="fill:#e69d9d; stroke:none;" d="M216 377L217 378L216 377z"/>
<path style="fill:#5f5f5f; stroke:none;" d="M283 377L284 378L283 377z"/>
<path style="fill:#e69d9d; stroke:none;" d="M292 377L293 378L292 377z"/>
<path style="fill:#5f5f5f; stroke:none;" d="M307 377L308 378L307 377z"/>
<path style="fill:#e69d9d; stroke:none;" d="M177 378L178 379L177 378M193 378L194 379L193 378z"/>
<path style="fill:#5f5f5f; stroke:none;" d="M208 378L209 379L208 378z"/>
<path style="fill:#e69d9d; stroke:none;" d="M217 378L218 379L217 378z"/>
<path style="fill:#5f5f5f; stroke:none;" d="M282 378L283 379L282 378z"/>
<path style="fill:#e69d9d; stroke:none;" d="M291 378L292 379L291 378M306 378L307 379L306 378M178 379L179 380L178 379z"/>
<path style="fill:#5f5f5f; stroke:none;" d="M209 379L210 380L209 379z"/>
<path style="fill:#e69d9d; stroke:none;" d="M218 379L219 380L218 379z"/>
<path style="fill:#5f5f5f; stroke:none;" d="M281 379L282 380L281 379z"/>
<path style="fill:#e69d9d; stroke:none;" d="M290 379L291 380L290 379M305 379L306 380L305 379M321 379L322 380L321 379z"/>
<path style="fill:#5f5f5f; stroke:none;" d="M179 380L180 381L179 380M210 380L211 381L210 380z"/>
<path style="fill:#e69d9d; stroke:none;" d="M219 380L220 381L219 380z"/>
<path style="fill:#5f5f5f; stroke:none;" d="M280 380L281 381L280 380z"/>
<path style="fill:#e69d9d; stroke:none;" d="M289 380L290 381L289 380M304 380L305 381L304 380M320 380L321 381L320 380z"/>
<path style="fill:#5f5f5f; stroke:none;" d="M180 381L181 382L180 381M211 381L212 382L211 381z"/>
<path style="fill:#e69d9d; stroke:none;" d="M220 381L221 382L220 381z"/>
<path style="fill:#5f5f5f; stroke:none;" d="M279 381L280 382L279 381z"/>
<path style="fill:#e69d9d; stroke:none;" d="M288 381L289 382L288 381M303 381L304 382L303 381z"/>
<path style="fill:#5f5f5f; stroke:none;" d="M319 381L320 382L319 381M181 382L182 383L181 382M212 382L213 383L212 382z"/>
<path style="fill:#e69d9d; stroke:none;" d="M221 382L222 383L221 382z"/>
<path style="fill:#5f5f5f; stroke:none;" d="M278 382L279 383L278 382M287 382L288 383L287 382M318 382L319 383L318 382M197 383L198 384L197 383M213 383L214 384L213 383z"/>
<path style="fill:#e69d9d; stroke:none;" d="M222 383L223 384L222 383z"/>
<path style="fill:#5f5f5f; stroke:none;" d="M277 383L278 384L277 383M286 383L287 384L286 383M317 383L318 384L317 383M198 384L199 385L198 384M214 384L215 385L214 384z"/>
<path style="fill:#e69d9d; stroke:none;" d="M223 384L224 385L223 384z"/>
<path style="fill:#5f5f5f; stroke:none;" d="M276 384L277 385L276 384M285 384L286 385L285 384M316 384L317 385L316 384M199 385L200 386L199 385M215 385L216 386L215 385z"/>
<path style="fill:#e69d9d; stroke:none;" d="M224 385L225 386L224 385z"/>
<path style="fill:#5f5f5f; stroke:none;" d="M275 385L276 386L275 385M284 385L285 386L284 385z"/>
<path style="fill:#e69d9d; stroke:none;" d="M184 386L185 387L184 386z"/>
<path style="fill:#5f5f5f; stroke:none;" d="M200 386L201 387L200 386M216 386L217 387L216 386z"/>
<path style="fill:#e69d9d; stroke:none;" d="M225 386L226 387L225 386z"/>
<path style="fill:#5f5f5f; stroke:none;" d="M274 386L275 387L274 386M283 386L284 387L283 386z"/>
<path style="fill:#e69d9d; stroke:none;" d="M185 387L186 388L185 387z"/>
<path style="fill:#5f5f5f; stroke:none;" d="M201 387L202 388L201 387M217 387L218 388L217 387z"/>
<path style="fill:#e69d9d; stroke:none;" d="M226 387L227 388L226 387M282 387L283 388L282 387z"/>
<path style="fill:#5f5f5f; stroke:none;" d="M298 387L299 388L298 387z"/>
<path style="fill:#e69d9d; stroke:none;" d="M186 388L187 389L186 388z"/>
<path style="fill:#5f5f5f; stroke:none;" d="M202 388L203 389L202 388M218 388L219 389L218 388M227 388L228 389L227 388z"/>
<path style="fill:#e69d9d; stroke:none;" d="M281 388L282 389L281 388z"/>
<path style="fill:#5f5f5f; stroke:none;" d="M297 388L298 389L297 388z"/>
<path style="fill:#e69d9d; stroke:none;" d="M313 388L314 389L313 388z"/>
<path style="fill:#5f5f5f; stroke:none;" d="M187 389L188 390L187 389M203 389L204 390L203 389M219 389L220 390L219 389M228 389L229 390L228 389z"/>
<path style="fill:#e69d9d; stroke:none;" d="M280 389L281 390L280 389z"/>
<path style="fill:#5f5f5f; stroke:none;" d="M296 389L297 390L296 389z"/>
<path style="fill:#e69d9d; stroke:none;" d="M312 389L313 390L312 389z"/>
<path style="fill:#5f5f5f; stroke:none;" d="M188 390L189 391L188 390M204 390L205 391L204 390M220 390L221 391L220 390M229 390L230 391L229 390z"/>
<path style="fill:#e69d9d; stroke:none;" d="M279 390L280 391L279 390z"/>
<path style="fill:#5f5f5f; stroke:none;" d="M295 390L296 391L295 390z"/>
<path style="fill:#e69d9d; stroke:none;" d="M311 390L312 391L311 390z"/>
<path style="fill:#5f5f5f; stroke:none;" d="M189 391L190 392L189 391M205 391L206 392L205 391M221 391L222 392L221 391M230 391L231 392L230 391z"/>
<path style="fill:#e69d9d; stroke:none;" d="M278 391L279 392L278 391z"/>
<path style="fill:#5f5f5f; stroke:none;" d="M294 391L295 392L294 391z"/>
<path style="fill:#e69d9d; stroke:none;" d="M310 391L311 392L310 391z"/>
<path style="fill:#5f5f5f; stroke:none;" d="M190 392L191 393L190 392z"/>
<path style="fill:#e69d9d; stroke:none;" d="M206 392L207 393L206 392z"/>
<path style="fill:#5f5f5f; stroke:none;" d="M222 392L223 393L222 392z"/>
<path style="fill:#e69d9d; stroke:none;" d="M277 392L278 393L277 392z"/>
<path style="fill:#5f5f5f; stroke:none;" d="M293 392L294 393L293 392z"/>
<path style="fill:#e69d9d; stroke:none;" d="M309 392L310 393L309 392z"/>
<path style="fill:#5f5f5f; stroke:none;" d="M191 393L192 394L191 393z"/>
<path style="fill:#e69d9d; stroke:none;" d="M207 393L208 394L207 393z"/>
<path style="fill:#5f5f5f; stroke:none;" d="M223 393L224 394L223 393z"/>
<path style="fill:#e69d9d; stroke:none;" d="M266 393L267 394L266 393M276 393L277 394L276 393z"/>
<path style="fill:#5f5f5f; stroke:none;" d="M292 393L293 394L292 393M308 393L309 394L308 393M192 394L193 395L192 394z"/>
<path style="fill:#e69d9d; stroke:none;" d="M208 394L209 395L208 394M224 394L225 395L224 394M265 394L266 395L265 394z"/>
<path style="fill:#5f5f5f; stroke:none;" d="M291 394L292 395L291 394M307 394L308 395L307 394z"/>
<path style="fill:#e69d9d; stroke:none;" d="M209 395L210 396L209 395M225 395L226 396L225 395z"/>
<path style="fill:#5f5f5f; stroke:none;" d="M264 395L265 396L264 395M290 395L291 396L290 395M306 395L307 396L306 395z"/>
<path style="fill:#e69d9d; stroke:none;" d="M210 396L211 397L210 396M226 396L227 397L226 396M236 396L237 397L236 396z"/>
<path style="fill:#5f5f5f; stroke:none;" d="M263 396L264 397L263 396M289 396L290 397L289 396M305 396L306 397L305 396M211 397L212 398L211 397z"/>
<path style="fill:#e69d9d; stroke:none;" d="M227 397L228 398L227 397M237 397L238 398L237 397z"/>
<path style="fill:#5f5f5f; stroke:none;" d="M262 397L263 398L262 397M288 397L289 398L288 397M304 397L305 398L304 397M212 398L213 399L212 398M238 398L239 399L238 398M287 398L288 399L287 398M303 398L304 399L303 398M213 399L214 400L213 399M239 399L240 400L239 399M269 399L270 400L269 399M286 399L287 400L286 399M302 399L303 400L302 399M214 400L215 401L214 400M240 400L241 401L240 400M268 400L269 401L268 400M285 400L286 401L285 400M301 400L302 401L301 400z"/>
<path style="fill:#e69d9d; stroke:none;" d="M198 401L199 402L198 401z"/>
<path style="fill:#5f5f5f; stroke:none;" d="M215 401L216 402L215 401z"/>
<path style="fill:#e69d9d; stroke:none;" d="M257 401L258 402L257 401M267 401L268 402L267 401z"/>
<path style="fill:#5f5f5f; stroke:none;" d="M284 401L285 402L284 401M300 401L301 402L300 401z"/>
<path style="fill:#e69d9d; stroke:none;" d="M199 402L200 403L199 402z"/>
<path style="fill:#5f5f5f; stroke:none;" d="M216 402L217 403L216 402M256 402L257 403L256 402z"/>
<path style="fill:#e69d9d; stroke:none;" d="M266 402L267 403L266 402z"/>
<path style="fill:#5f5f5f; stroke:none;" d="M283 402L284 403L283 402z"/>
<path style="fill:#e69d9d; stroke:none;" d="M200 403L201 404L200 403z"/>
<path style="fill:#5f5f5f; stroke:none;" d="M217 403L218 404L217 403M234 403L235 404L234 403z"/>
<path style="fill:#e69d9d; stroke:none;" d="M244 403L245 404L244 403z"/>
<path style="fill:#5f5f5f; stroke:none;" d="M282 403L283 404L282 403z"/>
<path style="fill:#e69d9d; stroke:none;" d="M201 404L202 405L201 404z"/>
<path style="fill:#5f5f5f; stroke:none;" d="M218 404L219 405L218 404z"/>
<path style="fill:#e69d9d; stroke:none;" d="M235 404L236 405L235 404z"/>
<path style="fill:#5f5f5f; stroke:none;" d="M245 404L246 405L245 404M219 405L220 406L219 405z"/>
<path style="fill:#e69d9d; stroke:none;" d="M236 405L237 406L236 405M252 405L253 406L252 405z"/>
<path style="fill:#5f5f5f; stroke:none;" d="M296 405L297 406L296 405M220 406L221 407L220 406M251 406L252 407L251 406M261 406L262 407L261 406z"/>
<path style="fill:#e69d9d; stroke:none;" d="M278 406L279 407L278 406z"/>
<path style="fill:#5f5f5f; stroke:none;" d="M295 406L296 407L295 406z"/>
<path style="fill:#e69d9d; stroke:none;" d="M249 407L250 408L249 407z"/>
<path style="fill:#5f5f5f; stroke:none;" d="M250 407L251 408L250 407M260 407L261 408L260 407z"/>
<path style="fill:#e69d9d; stroke:none;" d="M277 407L278 408L277 407z"/>
<path style="fill:#5f5f5f; stroke:none;" d="M294 407L295 408L294 407z"/>
<path style="fill:#e69d9d; stroke:none;" d="M223 408L224 409L223 408z"/>
<path style="fill:#5f5f5f; stroke:none;" d="M240 408L241 409L240 408z"/>
<path style="fill:#e69d9d; stroke:none;" d="M259 408L260 409L259 408M276 408L277 409L276 408z"/>
<path style="fill:#5f5f5f; stroke:none;" d="M293 408L294 409L293 408z"/>
<path style="fill:#e69d9d; stroke:none;" d="M224 409L225 410L224 409z"/>
<path style="fill:#5f5f5f; stroke:none;" d="M241 409L242 410L241 409z"/>
<path style="fill:#e69d9d; stroke:none;" d="M258 409L259 410L258 409z"/>
<path style="fill:#5f5f5f; stroke:none;" d="M275 409L276 410L275 409M292 409L293 410L292 409M208 410L209 411L208 410M225 410L226 411L225 410z"/>
<path style="fill:#e69d9d; stroke:none;" d="M242 410L243 411L242 410z"/>
<path style="fill:#5f5f5f; stroke:none;" d="M274 410L275 411L274 410M291 410L292 411L291 410M209 411L210 412L209 411M226 411L227 412L226 411M255 411L256 412L255 411M273 411L274 412L273 411z"/>
<path style="fill:#e69d9d; stroke:none;" d="M290 411L291 412L290 411z"/>
<path style="fill:#5f5f5f; stroke:none;" d="M210 412L211 413L210 412M227 412L228 413L227 412M245 412L246 413L245 412M254 412L255 413L254 412z"/>
<path style="fill:#e69d9d; stroke:none;" d="M289 412L290 413L289 412z"/>
<path style="fill:#5f5f5f; stroke:none;" d="M211 413L212 414L211 413z"/>
<path style="fill:#e69d9d; stroke:none;" d="M246 413L247 414L246 413M270 413L271 414L270 413M288 413L289 414L288 413M212 414L213 415L212 414M230 414L231 415L230 414z"/>
<path style="fill:#5f5f5f; stroke:none;" d="M251 414L252 415L251 414z"/>
<path style="fill:#e69d9d; stroke:none;" d="M269 414L270 415L269 414M287 414L288 415L287 414M213 415L214 416L213 415M231 415L232 416L231 415z"/>
<path style="fill:#5f5f5f; stroke:none;" d="M249.667 415.333L250.333 415.667L249.667 415.333M268 415L269 416L268 415z"/>
<path style="fill:#e69d9d; stroke:none;" d="M214 416L215 417L214 416z"/>
<path style="fill:#5f5f5f; stroke:none;" d="M232 416L233 417L232 416M267 416L268 417L267 416z"/>
<path style="fill:#e69d9d; stroke:none;" d="M215 417L216 418L215 417z"/>
<path style="fill:#5f5f5f; stroke:none;" d="M233 417L234 418L233 417z"/>
<path style="fill:#e69d9d; stroke:none;" d="M216 418L217 419L216 418z"/>
<path style="fill:#5f5f5f; stroke:none;" d="M234 418L235 419L234 418z"/>
<path style="fill:#e69d9d; stroke:none;" d="M264 418L265 419L264 418z"/>
<path style="fill:#5f5f5f; stroke:none;" d="M282 418L283 419L282 418z"/>
<path style="fill:#e69d9d; stroke:none;" d="M236 419L237 420L236 419M263 419L264 420L263 419z"/>
<path style="fill:#5f5f5f; stroke:none;" d="M281 419L282 420L281 419M219 420L220 421L219 420z"/>
<path style="fill:#e69d9d; stroke:none;" d="M237 420L238 421L237 420z"/>
<path style="fill:#5f5f5f; stroke:none;" d="M262 420L263 421L262 420M280 420L281 421L280 420M220 421L221 422L220 421M238 421L239 422L238 421z"/>
<path style="fill:#e69d9d; stroke:none;" d="M279 421L280 422L279 421z"/>
<path style="fill:#5f5f5f; stroke:none;" d="M221 422L222 423L221 422M239 422L240 423L239 422z"/>
<path style="fill:#e69d9d; stroke:none;" d="M259 422L260 423L259 422M278 422L279 423L278 422M222 423L223 424L222 423M241 423L242 424L241 423M258 423L259 424L258 423M223 424L224 425L223 424z"/>
<path style="fill:#5f5f5f; stroke:none;" d="M242 424L243 425L242 424M257 424L258 425L257 424M275 424L276 425L275 424M243 425L244 426L243 425M274 425L275 426L274 425M226 426L227 427L226 426z"/>
<path style="fill:#e69d9d; stroke:none;" d="M245 426L246 427L245 426M254 426L255 427L254 426z"/>
<path style="fill:#5f5f5f; stroke:none;" d="M273 426L274 427L273 426M227 427L228 428L227 427M246 427L247 428L246 427M253 427L254 428L253 427z"/>
<path style="fill:#e69d9d; stroke:none;" d="M272 427L273 428L272 427M228 428L229 429L228 428M248 428L249 429L248 428M251 428L252 429L251 428M229 429L230 430L229 429z"/>
<path style="fill:#5f5f5f; stroke:none;" d="M249.667 429.333L250.333 429.667L249.667 429.333M269 429L270 430L269 429M231 430L232 431L231 430z"/>
<path style="fill:#e69d9d; stroke:none;" d="M268 430L269 431L268 430z"/>
<path style="fill:#5f5f5f; stroke:none;" d="M232 431L233 432L232 431z"/>
<path style="fill:#e69d9d; stroke:none;" d="M267 431L268 432L267 431M233 432L234 433L233 432z"/>
<path style="fill:#5f5f5f; stroke:none;" d="M265 432L266 433L265 432M235 433L236 434L235 433M264 433L265 434L264 433z"/>
<path style="fill:#e69d9d; stroke:none;" d="M236 434L237 435L236 434M263 434L264 435L263 434M237 435L238 436L237 435z"/>
<path style="fill:#5f5f5f; stroke:none;" d="M261 435L262 436L261 435M239 436L240 437L239 436M260 436L261 437L260 436z"/>
<path style="fill:#e69d9d; stroke:none;" d="M240 437L241 438L240 437M259 437L260 438L259 437z"/>
<path style="fill:#5f5f5f; stroke:none;" d="M242 438L243 439L242 438M257 438L258 439L257 438z"/>
<path style="fill:#e69d9d; stroke:none;" d="M243 439L244 440L243 439z"/>
<path style="fill:#5f5f5f; stroke:none;" d="M256 439L257 440L256 439M245 440L246 441L245 440z"/>
<path style="fill:#e69d9d; stroke:none;" d="M255 440L256 441L255 440M246 441L247 442L246 441z"/>
<path style="fill:#5f5f5f; stroke:none;" d="M253 441L254 442L253 441M248 442L249 443L248 442z"/>
<path style="fill:#e69d9d; stroke:none;" d="M252 442L253 443L252 442M249 443L250 444L249 443z"/>
</svg>
