<svg xmlns="http://www.w3.org/2000/svg" width="500" height="500" style="shape-rendering:geometricPrecision;text-rendering:geometricPrecision;image-rendering:optimizeQuality;fill-rule:evenodd;clip-rule:evenodd"><path style="opacity:1" fill="#fefefe" d="M-.5-.5h500v500H-.5V-.5Z"/><path style="opacity:1" fill="#060606" d="M378.5 287.5v1h-13v-1c29.15-63.804 32.65-129.138 10.5-196A859.216 859.216 0 0 0 277.5 69c-27.227-2.87-54.227-1.537-81 4A697.03 697.03 0 0 0 123 91.5c-22.341 66.852-18.841 132.185 10.5 196v1h-13c.172-.992-.162-1.658-1-2-24.451-59.602-28.618-120.602-12.5-183a170.753 170.753 0 0 1 7.5-22 778.165 778.165 0 0 1 117-25.5c24.631-1.448 48.965.552 73 6a1351.246 1351.246 0 0 1 81 19.5c23.405 69.58 21.071 138.247-7 206Z"/><path style="opacity:1" fill="#f9f9f9" d="M365.5 287.5c-3.871.315-7.538-.018-11-1 27.064-59.864 31.398-121.364 13-184.5-1.182-1.735-2.849-2.735-5-3a908.297 908.297 0 0 0-87-19c-23.823-2.653-47.489-1.653-71 3a765.254 765.254 0 0 0-72.5 17.5c-19.699 63.609-15.532 125.609 12.5 186-3.462.982-7.129 1.315-11 1-29.341-63.815-32.841-129.148-10.5-196A697.03 697.03 0 0 1 196.5 73c26.773-5.537 53.773-6.87 81-4A859.216 859.216 0 0 1 376 91.5c22.15 66.862 18.65 132.196-10.5 196Z"/><path style="opacity:1" fill="#0a0a0a" d="M354.5 286.5c-.838.342-1.172 1.008-1 2-2.559.302-4.893-.032-7-1 28.014-58.343 33.18-118.676 15.5-181-37.299-11.698-75.466-19.031-114.5-22a441.42 441.42 0 0 0-81 13.5 215.124 215.124 0 0 0-29.5 8.5c-18.097 62.356-12.931 122.69 15.5 181-2.107.968-4.441 1.302-7 1 .172-.992-.162-1.658-1-2-28.032-60.391-32.199-122.391-12.5-186A765.254 765.254 0 0 1 204.5 83c23.511-4.653 47.177-5.653 71-3a908.297 908.297 0 0 1 87 19c2.151.265 3.818 1.265 5 3 18.398 63.136 14.064 124.636-13 184.5Z"/><path style="opacity:1" fill="#fefefe" d="M346.5 287.5h-194c-28.431-58.31-33.597-118.644-15.5-181a215.124 215.124 0 0 1 29.5-8.5 441.42 441.42 0 0 1 81-13.5c39.034 2.969 77.201 10.302 114.5 22 17.68 62.324 12.514 122.657-15.5 181Z"/><path style="opacity:1" fill="#221c1e" d="M311.5 125.5a13.116 13.116 0 0 1 7 1 15.855 15.855 0 0 0-5.5 6 430.658 430.658 0 0 1-12 25 70.588 70.588 0 0 1-10.5 9.5 14.84 14.84 0 0 1 4 3.5c-8.148 1.365-15.482 4.532-22 9.5l-27 31a67.197 67.197 0 0 1-19 8c1.921.36 3.588 1.194 5 2.5a39.986 39.986 0 0 0-8.5 6c-6.637 12.583-17.137 19.583-31.5 21l-8 21c-1.694-7.996-.694-15.663 3-23-3.301-6.233-4.968-12.9-5-20 .774-1.211 1.607-1.211 2.5 0 .325-2.053-.009-4.053-1-6-1.406-6.641-.073-12.641 4-18l11-11a45.177 45.177 0 0 0 5.5-15l3 2a37.147 37.147 0 0 1 7-10.5 181.89 181.89 0 0 0 32.5-20.5l1 5c10.784-9.812 23.284-16.645 37.5-20.5a782.865 782.865 0 0 1 27-6.5Z"/><path style="opacity:1" fill="#c9c8c3" d="M276.5 152.5a2.428 2.428 0 0 1 2 .5c-23.036 16.622-44.202 35.456-63.5 56.5-12.206 14.403-21.873 30.403-29 48 .986-8.95 3.986-17.283 9-25 11.94-18.948 26.44-35.781 43.5-50.5a1508.881 1508.881 0 0 1 38-29.5Z"/><path style="opacity:1" fill="#ee4186" d="M309.5 132.5c-2.231 8.511-5.731 16.844-10.5 25-5.76 7.262-13.26 10.596-22.5 10 4.071.637 8.071 1.471 12 2.5-10.43 2.969-18.93 8.802-25.5 17.5a114.989 114.989 0 0 1-20.5 23.5 131.117 131.117 0 0 1-26 9 40.23 40.23 0 0 1 11 2 25.55 25.55 0 0 0-6.5 5.5c-5.711 11.431-14.878 17.098-27.5 17 10.504-19.011 23.504-36.177 39-51.5a896.868 896.868 0 0 1 77-60.5Z"/><path style="opacity:1" fill="#ee4186" d="M306.5 128.5a8.43 8.43 0 0 1 4 .5 582.84 582.84 0 0 0-79 57c-18.316 16.469-32.983 35.636-44 57.5-2.756-4.272-3.589-8.939-2.5-14 .895 2.875 1.728 3.208 2.5 1-3.125-7.529-3.625-15.196-1.5-23a79.553 79.553 0 0 1 14-16 39.478 39.478 0 0 0 4.5-11c1.137 4.812 3.304 9.145 6.5 13 .257-2.517-.41-4.85-2-7-1.418-7.743 1.082-13.91 7.5-18.5a163.183 163.183 0 0 0 27.5-16.5 535.767 535.767 0 0 1-2.5 11c-.064 1.889.436 3.556 1.5 5 .287-7.075 3.121-12.908 8.5-17.5a108.477 108.477 0 0 1 21-12 324.546 324.546 0 0 1 34-9.5Z"/><path style="opacity:1" fill="#8d8286" d="M119.5 286.5c.838.342 1.172 1.008 1 2h-29c-.986 4.47-1.32 9.137-1 14h-1v-15c10.18.327 20.181-.006 30-1Z"/><path style="opacity:1" fill="#877d81" d="M144.5 286.5c.838.342 1.172 1.008 1 2h-12v-1c3.871.315 7.538-.018 11-1Z"/><path style="opacity:1" fill="#8d8386" d="M354.5 286.5c3.462.982 7.129 1.315 11 1v1h-12c-.172-.992.162-1.658 1-2ZM378.5 288.5v-1h32v14l-2-13h-30Z"/><path style="opacity:1" fill="#904761" d="M152.5 287.5h194c2.107.968 4.441 1.302 7 1h55v1h-317v-1h54c2.559.302 4.893-.032 7-1Z"/><path style="opacity:1" fill="#cac6c7" d="M89.5 301.5v1c-24.839-.331-49.506.002-74 1-.543-.06-.876-.393-1-1 24.991-1 49.991-1.333 75-1Z"/><path style="opacity:1" fill="#968c90" d="M410.5 301.5c24.676-.333 49.342 0 74 1-.124.607-.457.94-1 1-.342-.838-1.008-1.172-2-1-23.839.331-47.506-.002-71-1Z"/><path style="opacity:1" fill="#2d1b21" d="M15.5 303.5a1369.278 1369.278 0 0 1 74-1h1c0 .667-.333 1-1 1-24.172-.331-48.172.002-72 1h-1c0-.667-.333-1-1-1Z"/><path style="opacity:1" fill="#f13f87" d="M17.5 304.5a1296.165 1296.165 0 0 1 72-1c-.167 17.003 0 34.003.5 51a130.942 130.942 0 0 1 8.5 11 780.82 780.82 0 0 1-79 0 547.342 547.342 0 0 1 26-30 864.024 864.024 0 0 0-28-31ZM481.5 303.5a372.854 372.854 0 0 1-26.5 30c-.032 3.168 1.468 5.501 4.5 7a369.219 369.219 0 0 0 21 25 800.7 800.7 0 0 1-80 0v-1a93.637 93.637 0 0 0 9.5-10c.5-16.997.667-33.997.5-51h71Z"/><path style="opacity:1" fill="#442932" d="M16.5 304.5h1a864.024 864.024 0 0 1 28 31 547.342 547.342 0 0 0-26 30c-.79.283-1.456.783-2 1.5 27.836.83 55.503.664 83-.5.951-1.419 1.284-3.085 1-5 .968 2.107 1.302 4.441 1 7-29.008.333-58.008 0-87-1l28-32a892.632 892.632 0 0 0-27-31Z"/><path style="opacity:1" fill="#4b2f39" d="M481.5 302.5c.992-.172 1.658.162 2 1a937.012 937.012 0 0 1-26.5 30c-.667 1-.667 2 0 3 1.481.971 2.315 2.304 2.5 4-3.032-1.499-4.532-3.832-4.5-7a372.854 372.854 0 0 0 26.5-30v-1Z"/><path style="opacity:1" fill="#4e303b" d="M459.5 340.5a194.97 194.97 0 0 1 22 25h-1a369.219 369.219 0 0 1-21-25Z"/><path style="opacity:1" fill="#632e42" d="M91.5 288.5v64h317v-64l2 13c23.494.998 47.161 1.331 71 1v1h-71c.167 17.003 0 34.003-.5 51a93.637 93.637 0 0 1-9.5 10h-1a110.358 110.358 0 0 0 8-9.5c-2.727-.818-5.394-.652-8 .5-.363.683-.696 1.35-1 2h-1v-3h-57c-4.9-1.3-9.9-1.3-15 0h-14c-2.448-.973-5.115-1.306-8-1h-108c-2.885-.306-5.552.027-8 1h-14c-5.1-1.3-10.1-1.3-15 0h-57v7c.284 1.915-.049 3.581-1 5l-2-1a130.942 130.942 0 0 0-8.5-11c-.5-16.997-.667-33.997-.5-51 .667 0 1-.333 1-1-.32-4.863.014-9.53 1-14Z"/><path style="opacity:1" fill="#f24389" d="M91.5 289.5h317v63h-317v-63Z"/><path style="opacity:1" fill="#fab6d1" d="M191.5 315.5v7c2.235-.295 4.235.039 6 1h-7c-.306-2.885.027-5.552 1-8Z"/><path style="opacity:1" fill="#f9a3c5" d="M331.5 311.5h6c.268 1.599-.066 2.932-1 4v-3c-1.915.284-3.581-.049-5-1Z"/><path style="opacity:1" fill="#f9a4c6" d="M197.5 304.5c-1.765.961-3.765 1.295-6 1v6c1.915-.284 3.581.049 5 1h-6v-8h7Z"/><path style="opacity:1" fill="#f8a6c8" d="M116.5 304.5c-1.068.934-2.401 1.268-4 1 .325 7.187-.009 14.187-1 21v-22h5Z"/><path style="opacity:1" fill="#f8a4c6" d="M103.5 304.5h5v22c-.991-6.813-1.325-13.813-1-21-1.599.268-2.932-.066-4-1Z"/><path style="opacity:1" fill="#fef9fb" d="M382.5 301.5c11.255-1.833 14.588 2.501 10 13 1.844 3.717 2.511 7.717 2 12h-4a40.914 40.914 0 0 0-.5-9c-1.011-.837-2.178-1.17-3.5-1v10h-4v-25Z"/><path style="opacity:1" fill="#f35391" d="M386.5 304.5c2.988-.345 4.321.988 4 4 .321 3.012-1.012 4.345-4 4v-8Z"/><path style="opacity:1" fill="#fef4f8" d="M369.5 301.5h10v3c-2.235-.295-4.235.039-6 1v6h5v4h-5v7h7v4h-11v-25Z"/><path style="opacity:1" fill="#fef8fb" d="M355.5 301.5h12v3h-4v22h-4v-22h-4v-3Z"/><path style="opacity:1" fill="#fef1f6" d="M340.5 301.5h6c2.21 14.444 3.21 14.444 3 0h4v25c-1.644.214-3.144-.12-4.5-1a109.048 109.048 0 0 0-4-14 112.97 112.97 0 0 0-.5 15h-4v-25Z"/><path style="opacity:1" fill="#fef9fb" d="M331.5 311.5c1.419.951 3.085 1.284 5 1v3h-5v7h7v4h-11v-25h11v3h-7v7Z"/><path style="opacity:1" fill="#fef3f7" d="M316.5 300.5c6.156-.175 8.823 2.825 8 9h-3c.744-3.45-.59-5.116-4-5v18h4v-5h3c.835 8.987-2.665 11.32-10.5 7-.667-7-.667-14 0-21a10.515 10.515 0 0 0 2.5-3Z"/><path style="opacity:1" fill="#f9aaca" d="M301.5 301.5c1.068-.934 2.401-1.268 4-1 .326 8.849-.007 17.516-1 26v-25h-3Z"/><path style="opacity:1" fill="#fefafc" d="M301.5 301.5h3v25h-4c-.69-4.757-1.69-9.424-3-14l-1.5-3a145.053 145.053 0 0 0-.5 17h-3v-25c1.967-.239 3.801.094 5.5 1 2.898 14.587 4.064 14.254 3.5-1Z"/><path style="opacity:1" fill="#f9a8c9" d="m297.5 312.5-2 14c-.166-5.676.001-11.343.5-17l1.5 3Z"/><path style="opacity:1" fill="#fef6f9" d="M281.5 300.5c3.005-.247 5.505.753 7.5 3a100.2 100.2 0 0 1 0 20 9.454 9.454 0 0 1-1.5 2.5c-3.774 1.183-6.941.349-9.5-2.5a90.455 90.455 0 0 1 0-19c.69-1.85 1.856-3.184 3.5-4Z"/><path style="opacity:1" fill="#f24b8d" d="M282.5 304.5c.996-.086 1.829.248 2.5 1a72.464 72.464 0 0 1 0 17c-1 1.333-2 1.333-3 0-.788-6.082-.621-12.082.5-18Z"/><path style="opacity:1" fill="#fef4f8" d="M271.5 301.5h4v25h-4v-25Z"/><path style="opacity:1" fill="#fef8fb" d="M257.5 301.5h12v3h-4v22h-4v-22h-4v-3Z"/><path style="opacity:1" fill="#fef2f7" d="M246.5 301.5c2.579-.417 4.746.25 6.5 2a1397.046 1397.046 0 0 0 3.5 23h-4c.438-4.408-1.562-6.075-6-5v5h-4a195.167 195.167 0 0 1 4-25Z"/><path style="opacity:1" fill="#f5639a" d="M248.5 306.5c1.75 3.683 2.417 7.683 2 12h-3c.146-4.019.479-8.019 1-12Z"/><path style="opacity:1" fill="#fef3f7" d="M232.5 300.5c6.156-.175 8.823 2.825 8 9h-3c.744-3.45-.59-5.116-4-5v18h4v-5h3c.835 8.987-2.665 11.32-10.5 7-.667-7-.667-14 0-21a10.515 10.515 0 0 0 2.5-3Z"/><path style="opacity:1" fill="#f9a7c8" d="M215.5 301.5c1.068-.934 2.401-1.268 4-1v22c-.991-6.813-1.325-13.813-1-21h-3Z"/><path style="opacity:1" fill="#fff3f7" d="M215.5 301.5h3c-.325 7.187.009 14.187 1 21h4v-21h3c.166 7.674 0 15.341-.5 23-2.497 1.978-5.331 2.478-8.5 1.5a6.978 6.978 0 0 1-2.5-3.5c-.821-7.179-.655-14.179.5-21Z"/><path style="opacity:1" fill="#fef9fb" d="M200.5 301.5c10.329-2.337 14.329 1.663 12 12 2.502 10.496-1.498 14.829-12 13v-25Z"/><path style="opacity:1" fill="#f2458a" d="M204.5 304.5c1.322-.17 2.489.163 3.5 1 .499 5.657.666 11.324.5 17h-4v-18Z"/><path style="opacity:1" fill="#fefefe" d="M197.5 301.5v3h-7v8h6v3h-5c-.973 2.448-1.306 5.115-1 8h7v3h-10v-25h10Z"/><path style="opacity:1" fill="#f9a8c9" d="M197.5 301.5h-10v25c-.993-8.484-1.326-17.151-1-26 3.871-.315 7.538.018 11 1Z"/><path style="opacity:1" fill="#feeff5" d="M170.5 300.5c3.152-.541 5.652.459 7.5 3 .667 7 .667 14 0 21-2.497 1.978-5.331 2.478-8.5 1.5a6.978 6.978 0 0 1-2.5-3.5c-.667-6-.667-12 0-18a19.552 19.552 0 0 0 3.5-4Z"/><path style="opacity:1" fill="#f35592" d="M171.5 304.5h3v18h-4a86.749 86.749 0 0 1 1-18Z"/><path style="opacity:1" fill="#fef7fa" d="M153.5 301.5h11c-1.175 7.028-3.508 13.695-7 20a13.116 13.116 0 0 0 7 1v4h-11c.919-7.424 3.252-14.424 7-21a13.116 13.116 0 0 0-7-1v-3Z"/><path style="opacity:1" fill="#fef6f9" d="M138.5 301.5h4c-.165 3.35.002 6.683.5 10l4.5-9c1.223-1.114 2.556-1.281 4-.5a6759.068 6759.068 0 0 0-5 11 95.447 95.447 0 0 1 5 12.5c-1.333 1.333-2.667 1.333-4 0-3.386-11.969-5.052-11.636-5 1h-4v-25Z"/><path style="opacity:1" fill="#fef2f7" d="M127.5 300.5c6.667-.667 9.667 2.333 9 9h-4a8.43 8.43 0 0 0-.5-4c-1-1.333-2-1.333-3 0-.807 5.916-.641 11.75.5 17.5.949.617 1.782.451 2.5-.5.495-1.973.662-3.973.5-6h4c.867 8.308-2.633 11.308-10.5 9-1.594-7.226-1.928-14.56-1-22a10.515 10.515 0 0 0 2.5-3Z"/><path style="opacity:1" fill="#fefffe" d="M121.5 301.5v25h-3v-25h3Z"/><path style="opacity:1" fill="#f9adcc" d="M121.5 301.5h-3v25c-.993-8.484-1.326-17.151-1-26 1.599-.268 2.932.066 4 1Z"/><path style="opacity:1" fill="#fefbfc" d="M116.5 304.5h-5v22h-3v-22h-5v-3h13v3Z"/><path style="opacity:1" fill="#f78bb7" d="M369.5 301.5c3.462-.982 7.129-1.315 11-1v5h-7c1.765-.961 3.765-1.295 6-1v-3h-10Z"/><path style="opacity:1" fill="#e63d82" d="M92.5 355.5c2.448-.973 5.115-1.306 8-1a50.464 50.464 0 0 1-.5 10 101.383 101.383 0 0 0-7.5-9Z"/><path style="opacity:1" fill="#070707" d="M158.5 354.5c4.9-1.3 9.9-1.3 15 0 21.09 29.091 46.424 53.758 76 74a31.365 31.365 0 0 0 9-5.5c24.909-20.408 47.243-43.242 67-68.5 5.1-1.3 10.1-1.3 15 0-25.346 34.512-55.513 64.179-90.5 89-35.611-24.445-66.111-54.112-91.5-89Z"/><path style="opacity:1" fill="#fafafa" d="M173.5 354.5h14c18.017 23.017 38.684 43.35 62 61 22.706-18.374 43.373-38.707 62-61h14c-19.757 25.258-42.091 48.092-67 68.5a31.365 31.365 0 0 1-9 5.5c-29.576-20.242-54.91-44.909-76-74Z"/><path style="opacity:1" fill="#0a0a0a" d="M195.5 353.5c-.172.992.162 1.658 1 2a352.04 352.04 0 0 0 52.5 52 365.558 365.558 0 0 0 53.5-53c.667 0 1-.333 1-1 2.885-.306 5.552.027 8 1-18.627 22.293-39.294 42.626-62 61-23.316-17.65-43.983-37.983-62-61 2.448-.973 5.115-1.306 8-1Z"/><path style="opacity:1" fill="#615258" d="M195.5 353.5h108c0 .667-.333 1-1 1-35.504-.332-70.837.002-106 1-.838-.342-1.172-1.008-1-2Z"/><path style="opacity:1" fill="#fdfdfd" d="M302.5 354.5a365.558 365.558 0 0 1-53.5 53 352.04 352.04 0 0 1-52.5-52 2809.855 2809.855 0 0 1 106-1Z"/><path style="opacity:1" fill="#e53d81" d="M399.5 364.5c-.968-2.107-1.302-4.441-1-7 .304-.65.637-1.317 1-2 2.606-1.152 5.273-1.318 8-.5a110.358 110.358 0 0 1-8 9.5Z"/><path style="opacity:1" fill="#c1366e" d="M19.5 365.5a780.82 780.82 0 0 0 79 0l2 1a1150.869 1150.869 0 0 1-83 .5c.544-.717 1.21-1.217 2-1.5Z"/><path style="opacity:1" fill="#311d24" d="M397.5 357.5h1c-.302 2.559.032 4.893 1 7h1v1c-.543.06-.876.393-1 1l41 1c14.017-.001 27.683-.667 41-2a10.515 10.515 0 0 1 3 2.5c-29.331.5-58.665.667-88 .5.442-3.654.776-7.321 1-11Z"/><path style="opacity:1" fill="#902e55" d="M400.5 365.5a800.7 800.7 0 0 0 80 0h1c-13.317 1.333-26.983 1.999-41 2l-41-1c.124-.607.457-.94 1-1Z"/></svg>